<?xml version="1.0" encoding="utf-8"?>
<!-- Generator: Adobe Illustrator 21.1.0, SVG Export Plug-In . SVG Version: 6.00 Build 0)  -->
<svg version="1.1" id="レイヤー_1" xmlns="http://www.w3.org/2000/svg" xmlns:xlink="http://www.w3.org/1999/xlink" x="0px"
	 y="0px" viewBox="0 0 251.4 288.8" style="enable-background:new 0 0 251.4 288.8;" xml:space="preserve">
<style type="text/css">
	.st0{fill:#000000;}
</style>
<g>
	<path class="st0" d="M146.1,94.3c-0.5,0.8-1.2,1-1.8,1.6c-0.7,0.6-1.4,1.5-1.8,2.4c-0.6,1.3-2.4,4.4-2.7,1.3
		c-0.2-2.3-0.7-3.9-1.5-6.1c-0.4-0.9-0.9-1.7-0.8-2.8c0-1,0.5-1.9,0.6-2.8c0.4-3.4,0.6-6.1,3.3-8.4c0.4-0.3,0.6-0.7,1-1.1
		c0.6-0.5,1.8-0.9,2.5-0.6c2.4,0.9-0.7,4.4,0.3,5.9c0.5,0.8,1.4,1.2,1.8,2.1c0.3,0.8,0.1,1.8,0.1,2.7
		C147.1,90.5,147.1,92.6,146.1,94.3 M144,119.9c-0.1-1.2-0.4-2.3-0.3-3.6c0.2-2.4,0.1-5.8,1.8-7.7c0.6-0.7,1.5-1.2,1.2-2.2
		c-0.2-0.8-1-1.3-1.7-0.7c-0.8,0.6-0.8,2.6-1.4,3.5c-0.2,0.3-0.7,1.1-1.2,1c-0.8-0.2-0.4-1.2-0.4-1.7c0-1.8-0.9-2.9-2.2-4
		c-0.6-0.6-1.7-2-2.6-1.5c-0.7,0.4-0.8,1.6-1.1,2.2c-0.4,0.9-0.6,1.9-0.5,2.9c0.3,2-0.3,2.7-0.9,4.5c-0.8,2.3-0.8,4.9-0.9,7.3
		c0,1.3-0.8,2.4-0.8,3.7c0,1.7,0.9,2.9,1.7,4.4c0.5,0.8,0.9,1.6,1.7,2.2c0.7,0.5,1.6,0.7,2.2,1.2c0.6,0.5,0.3,1.6,0.8,1.9
		c0.7,0.4,1.3-0.9,1.4-1.4c0.4-0.9,0.7-1.9,1.4-2.6c0.7-0.6,1.2-0.9,1.3-1.9C144.1,124.9,144.3,122.6,144,119.9 M178.4,100.5
		c-0.4-0.3-1.7-0.7-1.7-1.3c0-0.8,1.2-2.2,1.8-2.6c0.9-0.7,2.2-0.9,3.3-1c0.7-0.1,1.5-0.2,2.2-0.2c0.7,0,1.3,0.3,1.9,0.3
		c1.7,0,2.3-1.7,2.3-3.1c0-1-1-1.1-1.6-1.7c-0.6-0.6-1-1.3-1.5-2c-0.7-1-1.4-2.3-2.7-2.3c-0.5,0-2.2,0.7-2.5,0
		c-0.2-0.5,1.1-1,1.5-1.3c1.7-1,1.4-1.8,0.6-3.3c-0.3-0.6-0.5-1.4-0.8-1.9c-0.6-0.9-1.3-2.1-2.5-2.3c-1.1-0.2-2.3,0.4-3.2,0.9
		c-1.9,1.1-1.8-0.9-1.4-2.2c0.2-0.7,0.6-1.2,0.6-2c-0.1-0.7-0.3-1.4-0.5-2c-0.4-1.6-1.5-2.2-3-2.6c-1.3-0.4-2.5,1.2-4,0.6
		c-0.3,1.3-0.2,2.7-0.3,4.1c0,1-0.3,1.9-0.3,2.9c0,0.7-0.1,1.6-0.3,2.3c-0.5,1.9-1.1,2.4-3.1,2.5c-0.2,0.7-0.9,0.4-1.4,0.5
		c-0.4,0.1-1.5,0.5-1.7,0.7c-1.4,0.6-3.5,1.1-4.3,2.6c-0.6,1.1,0.1,0.9,0.4,1.7c0.1,0.3-0.1,1,0,1.3c0.1,1.5,0.8,3,2.6,2.6
		c1.5-0.3,2.5-2.1,3.1-3.3c0.5-1,0.7-0.7,1.6-1c0.6-0.2,1.1-0.9,1.9-0.9c1.6,0,0.7,2.9,0.1,3.6c-1,0.3-1.9,1.2-2.9,1.7
		c-1,0.5-2.1,0.7-3.1,1.1c-0.8,0.3-1.5,0.8-2.3,1c-0.6,0.2-1.2,0.3-1.7,0.7c-0.6,0.4-1.3,0.9-2,1.3c-0.7,0.4-1.3,0.4-2,0.6
		c-0.8,0.2-1.5,0.8-2.1,1.4c-1.2,1.2-1.9,3.1-1.8,4.8c0,1.2,0.4,2.1,1.4,2.6c1,0.5,1.6,0.5,2.6,0.1c0.6-0.2,1.5-0.9,2.1-0.9
		c0.8-0.1,1.6,0.4,2.4,0.4c0.4,0,0.8,0.1,1.1,0.1c0.6,0,0.6-0.3,1-0.5c0.3-0.1,0.6-0.1,0.9-0.3c0.4-0.2,0.4-0.6,0.8-0.7
		c0.8-0.3,1.3,0,2.1-0.7c0.6-0.6,1.1-1.2,1.9-1.7c0.3-0.2,0.5-0.5,0.9-0.4c-0.1,0.6-0.8,1.4-1.1,2c-0.3,0.4-0.6,0.9-1.1,1.2
		c-0.6,0.4-1.4,0.3-2.1,0.6c-0.2,0.1-0.4,0.4-0.6,0.5c-0.3,0.2-0.7,0.2-1.1,0.4c-1.4,0.7-2.5,1.8-3.7,2.8c-0.6,0.6-1.1,0.8-1,1.7
		c0.2,1.5,0.9,3.1,2.4,3.8c0.7,0.3,1.3,0.1,1.6-0.5c0.2-0.3,0.2-0.6,0.4-0.9c0.2-0.3,0.4-0.5,0.6-0.7c0.3-0.2,0.6-0.4,0.8-0.6
		c0.2-0.2,0.3-0.5,0.6-0.7c0.4-0.3,0.8-0.1,1.1-0.2c0.3-0.1,0.7-0.5,1-0.6c0.6-0.3,1.1-0.7,1.8-0.7c1.3,0,0.7,0.8,0.1,1.4
		c-0.7,0.7-1.3,1.5-1.9,2.1c-0.9,0.9-2.1,1-3.2,1.5c-0.9,0.4-1.8,1.1-2.4,1.9c-0.6,0.8-1,2.2-0.4,3c0.5,0.6,1.2,1.2,1.9,1.6
		c0.6,0.3,1.3,1,2,1.1c0.5,0.1,0.9-0.1,1.3-0.3c1-0.5,1.9-1.3,3-1c1.3,0.3,1.2,1,1.1,2.2c-0.2,1.8-0.2,3.5-0.4,5.3
		c-0.1,0.7-0.3,1.3-0.1,2.1c0.3,1.2,1,2.3,1.1,3.4c0.1,1.3-0.3,2.6-0.3,4c0,0.9,0.3,2.9-0.4,3.5c-0.4,0.3-1,0.3-1.5,0.4
		c-0.9,0.2-0.7,0.2-0.6,1c0.1,0.9-0.1,0.9,0.7,1.5c1.1,0.8,1.5,2.7,2.4,3.8c0.8,1,1.1,0.9,2.4,0.8c0.7-0.1,0.7,0.1,1.2-0.5
		c0.4-0.5,0.5-0.8,0.6-1.4c0.2-0.5,0.4-0.8,0.7-1.2c1.2-2.3,0.8-4.4,0.8-6.9c0-2.3,0.5-4.5,0.5-6.7c0-0.8,0-1.6-0.2-2.3
		c-0.4-1-0.6-0.9-0.1-1.8c0.4-0.7,0.4-1.2,0.1-1.9c-0.3-0.6-0.8-1-1.1-1.5c-0.6-1.1,0.7-1.7,1-2.7c0.2-0.7,0.6-2.8,0.2-3.4
		c1.1-0.9,2.7-1.1,3.9-1.4c1.5-0.4,3.7-0.6,4.8-1.7c1-1,1.1-2.9,0.2-4c-0.6-0.8-1.7-1.2-2.4-1.9c-0.8-0.7-1.5-1.4-1.8,0
		c-0.1,0.7,0.1,1.3-0.5,1.8c-0.3,0.3-0.8,0.1-1.1,0.3c-0.3,0.1-0.6,0.5-0.9,0.5c-1.4,0.4-1.9-2.1-1.1-2.9c1-0.9,3.1-1.4,4.3-1.3
		c0.9,0,1.2,0.1,1.8-0.7C181.6,104.6,180.1,102,178.4,100.5 M173.8,95.7c0.6-0.2,1.3-0.3,1.9-0.5c0.5-0.2,1-0.5,1.6-0.6
		c0,0.5-0.5,1.2-0.7,1.7c-0.3,0.6-0.6,1-0.9,1.7c-0.5,1.6-1.7,0.7-2.7,1.8c-0.1,0.1-0.7-1.3-0.7-1.5c0-0.4,0.2-1.4,0.4-1.7
		C173.1,95.9,173.3,95.9,173.8,95.7 M158.2,101.4c-1.3,0.3-1.9,0.1-0.6-0.9c0.9-0.6,2.5-1.6,3.6-1.4
		C161.3,100.5,159.3,101.2,158.2,101.4"/>
	<path class="st0" d="M129.9,27c0.3-1.3,1.1-2.7,2.5-2.5c0.2-0.8,0.5-1.3,1.1-1.9c0.6-0.7,1.2-1.3,1.9-2c0.7-0.6,1.7-1.3,2.1-2.2
		c0.2-0.3,0.1-0.8,0.4-1.1c0.1-0.2,0.8-0.4,1-0.6c0.4-0.3,0.8-0.5,1-0.9c0.2-0.4-0.2-0.9,0.2-1.3c0.4-0.4,1.3-0.4,1.5-0.9
		c0.3-0.7-0.5-1.5,0-2.2c0.2-0.3,0.8-0.6,1.1-0.8c0.5-0.4,0.8-0.9,1.3-1.3c0.4-0.3,1.3-1.1,1.8-1.1c1.7,0.1-0.2,2.3-0.1,3
		c0.5,0,0.6-0.6,0.8-1c0.2-0.4,0.5-0.7,0.9-1.1c0.9-0.8,1.3-1.2,2.5-1.2c0.4-0.8,1.2-0.8,1.2-1.8c0-0.3-0.4-0.9,0.1-1.2
		c0.3-0.2,0.7,0,1-0.2c0.3-0.1,0.6-0.5,0.8-0.7c0.7-0.6,1.4-1.3,2.1-1.9c1-0.8,1.8-1.2,2.9-1.8c0,0,0.1,0.1,0.1,0.1
		c0.2-1.1,2.4,0.2,3,0.5c0.4,0.2,1.1,0.4,1.4,0.7c0.5,0.5,0.3,1.4,0.8,2c0.7,0.7,1.6,1,1.4,2.2c-0.2,1.1-0.8,1.9-1.6,2.7
		c-0.7,0.7-1.2,1.1-1.6,2c-0.2,0.5-0.1,0.5-0.5,0.8c-0.7,0.6-1.3,1.2-1.9,1.9c-0.5,0.7-1,0.8-1.6,1.2c-0.6,0.4-0.9,1-1.4,1.6
		c-0.5,0.6-1.3,1-1.8,1.5c-0.3,0.3-0.4,0.7-0.7,1.1c-0.2,0.3-0.5,0.3-0.8,0.5c-0.5,0.4-1,1-1.1,1.6c-0.2,0.7,0,1.1,0.6,1.4
		c1.3,0.7,4.4-0.7,5.6-1.2c1.2-0.5,2.7-1,3.8-1.7c1.6-1.1,2.5-3.7,4.5-3.9c0.8-0.1,1.5,0.3,2.2,0.2c0.8-0.2,0.8-1,1.4-1.3
		c0.7-0.3,1.1,0.5,1.3,1.1c0.2,0.6,0.2,1.5,0,2.1c-0.5,1.3-2.1,2.5-3.2,3.3c-0.6,0.5-1.2,0.9-1.9,1.3c-0.6,0.4-3.4,1.6-3.2,2.3
		c0.2,0.8,3.2-0.3,3.9-0.5c1.6-0.4,3.2-0.5,4.8-0.5c2.1,0,3.9,0.2,5.6,1.3c0.8,0.5,1.5,1,2,1.7c0.5,0.6,1.1,2.3,0.4,3
		c0.6,1.5-0.6,2.6-1.5,3.8c-0.8,1.1-1.5,2.3-2.3,3.4c-0.6,0.8-0.5,1.2-1.7,1.2c-0.8,0-1.5-0.2-2.4-0.4c-0.8-0.2-1.3-0.6-1.8-1.1
		c-0.6-0.6-0.6-1.8-1.5-1.6c-0.5,0.2-1.5,1.1-1.5,1.6c0,0.5,0.7,1.1,0.9,1.6c1.3,0.4,1.4,2.8,1.1,3.8c-0.5,1.7-3,2.5-2,4.7
		c0.5,1.1,2.7,1.8,3.7,2.2c1.4,0.6,2.6,1.2,3.2,2.7c0.3,0.7,0.8,1.1,1.1,1.7c0.2,0.5,0.2,1.3,0.2,1.9c0,0.7,0.1,1.5,0,2.2
		c-0.1,0.8-0.5,1.6-0.5,2.5c0,0.8,0.2,1.5-0.1,2.4c-0.3,0.7-0.8,1.6-1.4,2c-0.6,0.4-1.2,0.5-1.8,1c-0.6,0.5-1.3,1-1.8,1.6
		c-0.7,0.8-0.7,1.3-1.9,1.1c-0.8-0.1-1.3-0.6-2.1-0.7c-1.6-0.3-2.6-1.5-4-2.1c-0.8-0.3-1.2-0.2-1.7-0.9c-1.1-1.5-1.4-3.6-0.9-5.4
		c0.4-1.5,1.6-3,3.1-3.2c0.7-0.1,1.6,0.1,2.3,0.2c1,0.1,1.1,0.3,1.9,0.8c1.5,0.9,1.2-2.1,0.3-2.8c-1.1-0.9-2.8-0.5-4.1-0.2
		c-1.6,0.4-2.4,1.8-3.1,3.2c-0.4,0.7-0.9,1.3-1.3,2c-0.4,0.8-0.7,1.4-1.6,1.6c-1.2,0.3-3.1-0.2-3.5-1.5c-0.2-0.7-0.3-1.5-0.3-2.3
		c-0.1-0.9-0.6-1.8-0.4-2.8c0.1-0.7,0.3-1.5,0.5-2.1c0.2-0.8,0.6-1.4,1-2.2c0.3-0.7,0.7-1.4,0.3-2.1c-0.3-0.5-1-0.8-1.3-1.4
		c-0.6-1.3,1-3.1,1.9-4c0.6-0.6,1.3-1.1,1.9-1.7c0.5-0.6,1.4-1.1,1.8-1.8c0.3-0.5,0.2-1.5,0.2-2.1c-0.1-0.6,0-1.4-0.1-2
		c0-0.4-0.2-0.7-0.2-1.2c0-0.4,0.3-0.6,0.1-0.9c-0.4-0.5-1.3-0.2-1.8,0c-0.6,0.2-1,0.7-1.6,0.9c-0.4,0.2-0.6-0.3-0.7,0.3
		c-0.1,0.5,0.1,0.5,0.4,0.7c1,0.7,3.4-0.1,3,1.7c-0.4,1.5-1.7,2-3,2.6c-2.2,0.9-4.5-0.5-4.3-3c0.1-0.9,0.8-1.9,1.2-2.6
		c0.2-0.4,0.6-0.7,0.6-1.1c0.1-0.5-0.3-0.8-0.3-1.2c0.1-1,1.3-1.2,1.9-1.6c0.7-0.4,1.2-0.9,1.9-1.3c0.8-0.4,2.8-0.8,2.5-2.1
		c-0.8-0.6-3.1-0.2-4.1-0.3c-0.9-0.1-1.9-0.2-2.6-0.8c-0.7-0.6-0.8-1.3-1.9-1.1c-1.1,0.2-1.6,1-2.2,1.8c-0.7,1-1.5,1.2-2.4,1.8
		c-0.4,0.2-0.9,0.9-1.1,1.3c-0.5,0.9-0.7,2.1-1.6,2.7c-0.5,0.3-0.8,0.1-1.2,0.6c-0.3,0.4-0.5,1.1-0.6,1.6c-0.1,0.5-0.1,1.1-0.5,1.5
		c-0.3,0.3-0.7,0.4-0.8,0.8c-0.8,0-1.2,0.3-2,0.4c-0.8,0.2-0.8-0.1-1.4-0.3c-0.5-0.2-1.4-0.2-2-0.1c-0.7,0.1-1.1,0.7-1.7,0.9
		c-1.9,0.6,0.7-2.4,0.3-2.9c-0.3-0.5-1.5-0.1-1.9-0.5c-0.4-0.3-0.7-1.1-0.9-1.6C129.1,29.9,129.6,28.3,129.9,27 M145.2,43.4
		c0.7,0,1.9,0,2.4-0.6c0.5-0.5,0.1-1.5,0.3-2.1c0.3-1.5,0.8-3.1,1.3-4.6c0.2-0.7,0.2-1.4,0.3-2.2c0-0.8,0.4-1.5,0.3-2.3
		c-0.1-1.1-0.4-1.5,0-2.6c0.2-0.5,0.4-0.9,0.4-1.3c0-0.3,0-0.6-0.2-1c-0.2-0.6,0-1.1-0.9-0.8c-0.8,0.2-1.2,1.7-1.7,2.3
		c-0.3,0.3-0.7,0.3-1,0.6c-0.8,0.7-0.4,1.4-0.8,2.3c-0.4,1-1.2,1.2-1.9,1.8c-1,0.9-0.5,1.5-0.3,2.6c0.2,2.2-2.4,2.4-1.6,4.6
		c0.3,0.8,0.8,1.8,1.2,2.5C143.5,43.7,143.9,43.5,145.2,43.4 M173.1,7.8c-0.8,0-7.7,0.4-6.5,2.4c1,1.6,3.5,0.9,5,1.3
		c1.9,0.5,2.9,1.8,4.3,3c0.6,0.5,1.3,1,0.7,1.6c-0.4,0.4-1.7,0.4-1.9,1.1c-0.1,0.8,1.1,0.8,1.6,0.8c0.7,0.1,1.3,0,1.9,0.3
		c0.5,0.3,0.8,1.1,1.5,1.1c0.2,0,0.7-0.3,1-0.3c0.4,0,0.7,0.1,1.1,0.1c1.3,0.3,3.7,0.5,5-0.2c1.4-0.8,2.1-2.2,0.7-3.5
		c-0.7-0.6-1.5-0.4-1.6-1.5c-0.1-0.9,0.3-1.3-0.5-1.9c-0.8-0.6-1.5-1.1-2.2-1.7c-0.9-0.7-2.1-1-3.2-1.3c-1.3-0.4-2.7-0.8-4-1.1
		C175.2,7.9,174.2,7.7,173.1,7.8 M164.2,60.5c-0.3,0-0.5,0.1-0.6,0.2c-0.4,0.5,0.5,1.6,1.3,1.6c0.6,0,1.1-0.4,0.8-1
		C165.5,61,164.4,60.5,164.2,60.5 M163.4,32.3c1,0,2.7-2.6,2.4-3.5c-0.4-1-1.6,0-2,0.5C163.5,29.5,162.6,32.3,163.4,32.3
		 M171.8,31.3c0.9-0.2,2.8-1.4,3.3-2.2c0.8-1.3-1.5-1.8-2.4-1.7c-1.2,0.1-2.5,0.1-3.7,0.2c-1.7,0.2-0.5,1.3,0.2,2
		C169.7,30.3,170.8,31.5,171.8,31.3"/>
	<path class="st0" d="M121.5,217.6c-0.2-0.1-0.4-0.4-0.6-0.6c-0.4-0.5-0.9-0.8-1.5-1.2c-1.3-0.8-2.6-1.9-4-2.5
		c-1.4-0.6-2.9-0.9-4.1-1.7c-0.1,0.9-0.8,1.1-1,1.8c-0.2,0.7,0.2,1.8,0.1,2.7c-0.1,0.8-0.4,1.6-0.5,2.4c-0.3,1.8-0.7,3.3-1.3,4.9
		c-0.5,1.2-0.3,1.7-1.4,2.5c-1,0.7-1.7,0.9-2.8,1.2c-1.7,0.5-3.7,0.3-5.4-0.4c-0.6-0.3-1.4-0.8-2-1.2c-0.5-0.4-1.5-1.4-1.5-2.1
		c-0.4-0.1-0.7-0.5-1.1-0.6c-0.3-0.1-0.6,0.1-0.9-0.1c-0.2-0.1-0.2-0.5-0.4-0.5c-0.7-0.3-2-0.2-2.4-0.7c0.2-0.2,0.4-0.5,0.6-0.6
		c-2.7-0.5-5-1.3-7.8-1.4c-0.5,0-1.8-0.2-2.1,0.2c0.3,0.1,0.5,0.4,0.7,0.5c-0.8-0.1-1.3,0.7-2,1c-0.6,0.3-1.4,0.6-2.1,0.8
		c-1.3,0.3-0.9,0.3-1.6,1.2c-0.4,0.5-1.5,0.9-2.2,0.9c0,0.4-0.2,0.6-0.5,0.7c0-0.2-0.1-0.5-0.1-0.6c-0.1,0-0.4,0.1-0.5,0.1
		c0.1,1.3-4.3,1.6-5.2,2.2c-0.1-0.2-0.4-0.4-0.5-0.5c-0.1,0.2-0.4,0.4-0.5,0.5c-0.8-1.2-1-0.3-1.7,0c0-0.1,0-0.2,0-0.3
		c-0.9,0-1.3-2-1.6-2.7c-0.6-2,0.2-4.1,1-5.9c0.8-2,1.3-4.2,2.9-5.8c2.2-2.3,4.6-4.3,7.3-5.8c0.5-0.3,1.3-0.2,1.9-0.4
		c1.1-0.4,1.9-1.1,2.9-1.7c1.1-0.8,2.7-0.9,4-1.2c1-0.2,2-0.7,3-0.5c0,0.2,0,0.3,0,0.5c-1.4,0.2-2.7,0.5-3.5,1.6
		c1.1-0.2,2.1-0.7,3.2-0.9c0.5-1,4.1-1.6,5.1-1.7c0.6-0.1,1.2,0.1,1.9,0.1c1.7,0,2.3-0.7,2.3-2.3c-0.1-2.1,0.1-4.3,0.1-6.5
		c0-1.4-0.1-2.7-0.2-4.1c-0.1-1.4,0.5-2.7,0.2-4c-0.5-1.8-1.8-2.3-3.4-2.6c-0.9-0.2-1.6-0.8-2.5-1c-0.9-0.3-1.5-0.7-2.4-1
		c-0.8-0.3-1.8-0.3-2.6-0.8c-1.5-0.9-2.1-2.5-3.1-3.9c-1-1.4-1.8-2.8-0.7-4.4c0.9-1.4,2.2-2.4,4.1-2.4c1.2-1.2,4-0.3,5.5-0.7
		c0.7-0.1,1.3-0.4,2.1-0.5c0.6-0.1,1.3-0.3,1.8-0.7c1.1-0.9,0.9-3.8,0.8-5c-0.1-0.8-0.2-1.5-0.1-2.4c0-0.8-0.4-1.6-0.4-2.4
		c-0.1-0.6,0.1-1.1,0.1-1.8c0-1.3-0.5-2.6-0.7-3.8c-0.2-0.8-0.2-1.3-0.5-1.9c-0.3-0.5-0.9-1-1.3-1.4c-0.9-1.1-1.6-1.2-3.1-1.5
		c-1.2-0.2-2.4-1.1-3.6-1.5c-1.6-0.5-3.3-1.1-4.8-1.8c-0.7-0.3-1.7-0.9-2.4-1c-1.2-0.1-1.3,0-2.3-0.6c-0.7-0.5-1.7-0.7-2.5-1.3
		c-0.5-0.4-0.8-0.9-1.2-1.3c-0.4-0.3-0.9-0.4-1.2-0.9c0,0.1,0,0.1-0.1,0.2c-0.1-0.2-0.1-0.5-0.2-0.7c0.3-0.2,0.5-0.4,0.8-0.6
		c0.2-0.1,0.4-1,0.6-1.2c0.3-0.4,0.9-0.7,1.4-1c1.1-0.7,2.3-1.2,3.6-1.7c2.1-0.8,3.7-2.1,6-2.5c2.4-0.5,4.9-0.5,7.4-0.4
		c1.8,0,2.6,0.6,3.5-1.1c0.5-1,0.5-3.2,0.6-4.4c0.1-0.8,0.1-1.9,0.4-2.6c0.3-0.7,0.8-1.2,1-1.9c0.4-1.1,0-0.7,1-0.7
		c1.6,0.1,4,0.5,5.2,1.4c1.3,0.9,1.7,2.6,2.2,4.1c0.4,1,0.2,2.3,0.2,3.4c-0.1,1.5-0.5,3.6,0.1,5c0.4,1,1.8,2,2.6,2.7
		c0.8,0.6,2.2,2.3,2,3.3c0.8,0.7,1.3,0.9,1,2.2c-0.1,0.6-0.3,1.3-0.5,1.9c-0.2,0.5-0.5,0.7-0.7,1c-0.4,0.8-0.2,1.6-0.4,2.4
		c-0.2,1-0.6,0.8-1.6,1.3c-1.1,0.6-1.3,1-1.6,2.2c-0.2,0.7-0.6,1.6-0.5,2.4c0.9-0.1,0.3,0.7,0.4,1.1c0.1,0.4,0.9,0.7,0,1.1
		c0.5,0.6,0.5,1.9,0.6,2.7c0,0.5-0.2,1.1-0.1,1.6c0.1,0.6,0.4,0.9,0.4,1.5c-0.2,0.1-0.3,0.2-0.4,0.3c0.5,0.7,0.5,2.2,0.6,3.1
		c0,0.6,0.1,1.2,0.6,1.6c0.5,0.3,1.3-0.3,1.4,0.9c0.7-0.1,1.9,0.5,2.5,0.8c0.8,0.3,1.7,0.9,2.4,1.4c0.4,0.3,0.8,0.8,1.2,1
		c0.4,0.2,0.8,0.2,1.1,0.4c0.2,0.1,0.9,0.8,1,1c0.3,0.5-0.5,0.8,0.3,1c0.1,0.5,0,1,0.3,1.5c0.1,0.3,0.9,0.9,1,1.2
		c0.1,0.7-0.6,0.9-0.7,1.4c-0.1,0.9,0.2,1.6-0.1,2.5c-0.2,0.8-0.4,1.8-1.1,2.3c-0.8,0.7-2.2,0.9-3.1,1.3c-0.7,0.3-1.4,0.6-2.2,0.8
		c-0.4,0.1-0.7,0.3-1.2,0.3c-0.4,0-1.1-0.2-1.3,0.1c-0.3,0.3-0.3,2.2-0.4,2.6c-0.1,0.9,0,1.7-0.1,2.6c-0.1,1.1,0.3,1.3,0.4,2.3
		c0.1,0.9-0.2,1.6-0.2,2.5c0,1,0.1,1.7,0,2.7c-0.1,1-0.2,2.2,0.1,3.1c0.4,1.1,1.8,1.9,2.9,1.6c0-0.2,0.1-0.2,0.1-0.5
		c1,0.2,2,0.4,2.9,0.7c-0.1,0.1-0.2,0.4-0.3,0.5c0.2,0.1,0.5,0.1,0.8,0.1c0.2-0.5,2.1-0.7,2,0.1c0.4-0.2,1.5-0.6,1.2,0.3
		c0.7,0.1,2.5-0.1,2.9,0.5c3.1,0.2,6.4,1.7,9,3.4c1.1,0.7,1.9,1.8,2.7,2.9c0.5,0.8,1.4,1.1,1.9,1.9c0.1,0.2,0.2,0.6,0.3,0.9
		c0,0.1,0.2,0.8,0.2,0.9c0.1,0.6,0.2,3.5-0.3,3.6c0,0.6-0.2,1.3-0.4,1.8c0.4,1.2-1,3.3-2.1,3.9c-0.7,0.4-1.8,0.4-2.5,0.4
		c-1,0.1-1.7,0.3-2.6-0.2c-1.1-0.6-2.2-2.1-3.1-3c-0.4-0.4-0.8-1.1-1.3-1.4C122.4,217.8,121.8,217.8,121.5,217.6 M74.7,207.3
		c-0.3,0.1-1.3,0.6-1.4,0.9C73,209.4,75,208,74.7,207.3z M71.3,208.6c-0.7,0.6-1.4,1.2-2,1.8c-0.6,0.6-1.8,1.8-1.9,2.6
		c0.7-0.2,0.7-1,1.1-1.4c0.4-0.5,1.1-0.7,1.6-1.1l-0.3,0.1c0.7-0.7,1.4-1.2,2.3-1.8c0.2-0.2,1.2-0.7,0.6-1.1
		C72.2,207.6,71.5,208.4,71.3,208.6 M83,214.7c-0.3-0.2-0.3-0.6-0.6-0.8c-0.4-0.3-1.1-0.1-1.1,0.5c0,0.4,0.9,0.8,1.3,0.9
		c0.3,0,1.6-0.1,1.5-0.5C83.8,214.8,83.3,214.9,83,214.7 M74.3,208.7c-0.4,0.3-1.1,0.7-1.1,1.2c0,0.3,1.7-0.8,1.8-0.9
		C75.9,208.2,75,208.2,74.3,208.7 M74.3,210.3c0,0,0.2,0.3,0.2,0.3c0.5,0.1,1.7-0.6,0.9-1C75,209.4,74.1,209.8,74.3,210.3
		 M85.8,218.5c0,0-0.8,0.4-0.5,0.4c0.4,0,0.7,0,0.8,0.4c0.5,0,0.9,0,1.4,0.1c0.5,0.1,0.8,0.7,1.2,0.1c-0.4-0.6-1.3-0.9-2-1
		C86.6,218.5,86,218.4,85.8,218.5 M89.7,217.2c-0.2-0.3,0.1-0.7-0.1-0.9c-0.4-0.3-1.2-0.1-1.7-0.3c-0.7-0.2-1.1-0.7-1.9-0.6
		c-0.9,0.1-0.7,0.4,0,0.7c0.4,0.2,1,0.3,1.5,0.4c0.5,0.1,1.2-0.1,1.5,0.3c-0.8,1-2.8-1-3.5-0.1c0,0.1,0.1,0.2,0.1,0.2
		c0.4,0,0.9,0.1,1.2,0.4c-0.2,0.4-1,0.2-1,0.8c1.2,0.2,2.3-0.6,2.7,1c1-0.2,1.6,0.7,2.7,0.6c0.1-0.6-0.4-0.3-0.8-0.5
		c-0.5-0.3-0.6-0.6-1-1c-0.5-0.5-1.3-0.7-2.2-0.5c0-0.2,0-0.3,0.1-0.5c1.1-0.3,1.9,0.4,2.7,1c0.4,0.3,0.7,0.5,1.1,0.3
		C92.2,217.9,89.9,217.5,89.7,217.2 M94,209c-0.5,0.1-1.1-0.2-1.7-0.1c-0.5,0.1-1,0.5-1.4,0.7c-0.6,0.2-1.6,0.3-2.3,0.3
		c-0.6-0.7-2.1,1.7-2.7,2c0-0.3-0.1-0.6-0.1-0.9c-0.7-0.1-3.2,1.8-3.5,2.5c0.7,0,3.5-0.6,3.1,0.9c-0.3,0.2-0.3,0.3-0.5,0.6
		c0.6,0,1,0.1,1.5,0.3c0.7,0.1,1,0,1.6,0.1c1.1,0,2.2,0.3,3.2,0.2c-0.1-0.4-1.2-0.5-1.1-0.7c0.1-0.5,2.1,0,2.4-0.1
		c1-0.1,1.8-0.6,2.3-1.4c0.3-0.5,0.6-1.7,0.7-2.3c0.2-0.6,0.3-1.9-0.1-2.5C94.8,208.4,94.4,208.9,94,209"/>
	<path class="st0" d="M251.1,258.8c0,0.1-0.3,0.2-0.4,0.3c-0.1,0.6-0.3,1.3-0.4,1.9c0,0.2,0,0.8-0.1,1c-0.1,0.2-0.4,0.4-0.5,0.6
		c-0.2,0.5-0.2,1.3-0.5,1.5c0-0.3-0.3-0.6-0.3-0.8c-0.7,0.4,0,0.8-0.1,1.3c-0.1,0.4-0.6,0.8-0.9,1.2c-0.6,0.7-1.4,1.4-2.2,1.9
		c-0.8,0.5-1.1,0.2-2,0.3c-0.8,0.1-1.3,1-1.8,1.5c-0.1,0.2-1.8,1.6-1.8,1.6c0.1-2.3-0.8-0.1-1.3,0.4c-0.5,0.1-0.3,0.5-0.7,0.9
		c-1.5,1.3-4.2,1.6-6,2.2c-1.8,0.6-3.8,0.7-5.5,1.4c-2.2,0.9-4.9,0.5-7.3,0.8c-3.1,0.3-6.3,0.1-9.5,0c-1.5-0.1-3.2-0.3-4.6-0.7
		c-3.4-0.8-6.5-1.3-9.6-3c-1.3-0.7-2-1.9-3.2-2.7c-1.1-0.7-1.8-1.5-2.7-2.4c-0.7-0.7-0.5-0.6-0.8-1.6c-0.3-0.9-0.9-0.8-1.4-1.5
		c-0.1-0.2-0.1-0.8-0.2-1.1c-0.1-0.3-0.3-0.5-0.5-0.9c-0.9-1.8-1.2-4.1-1.6-6.1c-0.4-2-0.2-4,0.1-6c0.3-2.3,0.8-4.7,1.4-7
		c0.2-0.8,0.5-1.7,0.6-2.5c0.4-2.2,1-4.2,1.6-6.4c0.6-2.2,1.1-4.5,1.8-6.7c0.8-2.3,1.9-4.6,2.4-7c0.2-1,0.2-1.9,0.5-2.8
		c0.4-1.2,0.9-2.3,1.3-3.5c0.4-1.5,1.6-4.1,1.2-5.6c-0.6,0.4-1.2,0.9-1.8,1.3c-0.5,0.4-1.2,0.7-1.7,1.2c-0.5,0.5-1,1.2-1.5,1.8
		c-0.8,0.9-1.9,1.6-2.8,2.4c-0.4,0.4-0.7,1.1-1.2,1.3c-0.2,0.1-0.5,0-0.7,0.2c-0.2,0.2,0,0.5-0.2,0.7c-0.2,0.2-0.3,0-0.4,0
		c-0.1,0.1-0.1,0.3-0.2,0.3c-0.1,0.1-0.7,0.1-0.7,0.2c-0.2,0.2,0,0.3-0.2,0.5c-0.2,0.3-0.4,0-0.7,0.1c-0.4,0.1-0.9,0.6-1.3,0.8
		c-0.5,0.3-0.9,0.6-1.4,0.9c-0.9,0.7-1.7,1.5-2.6,2c-1.1,0.6-1.2,1.1-2,2c-0.2,0.2-0.5,0.5-0.8,0.6c-0.3,0.1-0.6,0-0.9,0.1
		c-0.3,0.2-0.3,0.4-0.4,0.8c-0.3,0.8-1,0.7-1.8,0.5c0-0.4,0.8-0.7,1.1-0.9c1.2-0.8,2-2.2,2.9-3.2c0.6-0.6,3.9-1.9,3.1-2.9
		c-0.7,0.9-1.7,1.3-2.7,1.8c-1.1,0.7-2.1,1.6-3,2.4c-0.6,0.5-0.6,1-1.1,1.7c-0.5,0.6-1.4,0.9-1.6,1.7c0.2,0,0.5,0.2,0.6,0.2
		c-0.4,0.5-2,1.8-2,2.2c1.3-0.1,2.3-2.6,3.7-2.8c-0.3,0.9-2.1,2.3-2.8,2.9c-0.9,0.7-1.9,1.4-2.7,2.2c-0.7,0.7-0.7,1.2-1.3,1.9
		c-0.3,0.5-1,0.8-1.3,1.2c-0.6-0.5-1.9,0.9-2.1,1.6c0.1,0.1,0.2,0.3,0.3,0.4c-0.6,0.6-1.3,1-2,1.5c-0.6,0.4-1.4,0.8-1.5,1.6
		c-0.7,0-1.6,0.3-1.5,1.1c0.2,0,0.5,0,0.6-0.1c-0.4,1-1.4,1.3-1.7,2.4c-0.2,0.9,0.2,1.8,0.1,2.7c-0.1,0.7-0.6,1.3-0.7,2
		c-0.2,0.8,0,1.2-0.1,2c-0.1,1.6-0.1,3,0.1,4.7c0.1,1.2,0.5,3.4-0.1,4.4c0.8,1.3,0.6,3.2,0.7,4.7c0.1,0.9,0.3,1.9,0.4,2.9
		c0.2,1.6,0.3,3.1,0.4,4.6c0.1,0.7,0.2,1.5,0.3,2.3c0.1,1.5,0.3,3.1,0.4,4.5c0.1,1-0.2,1.8-0.4,2.8c-0.2,0.9-0.2,1.7-0.7,2.6
		c-0.7,1.5-1.7,3.2-3.4,3.8c-1.8,0.6-3.5,0.6-5.5,0.3c-2.8-0.4-4.8-4.2-6.2-6.3c-0.8-1.2-1.6-2.3-2.3-3.6c-0.5-0.9-0.5-1-0.8-2.1
		c-0.1-0.7-0.4-1.4-0.6-2c-0.6-1.4-0.2-2.7-0.4-4.2c1-0.5,0.1-1.1,0.2-1.8c0.1-0.5,0.4-0.3,0.6-0.7c1.4-2.6,1.6-4.9,2.1-7.9
		c-1,0.6-2.3,1.5-3,2.5c-2.2-0.5-2.8,3.5-4.4,4.6c-0.9,0.7-1.8,1-2.8,1.2c-0.4,0.1-0.3,0.3-0.8,0.3c0,0-0.6-0.2-0.8-0.2
		c-0.6-0.2-1.1-0.2-1.7-0.2c0-0.6-0.3-0.4-0.6-0.6c-0.1-0.1-0.5-0.5-0.7-0.7c-0.5-0.5-1.2-0.7-1.6-1.1c-0.5-0.5-0.9-1.4-1.3-2
		c-0.4-0.5-0.7-1-0.9-1.6c-0.4-1.3-0.1-2.6-0.3-3.8c-0.3-2.2-0.1-4.1,1.3-5.8c1.3-1.6,3-2.8,4-4.7c1.4-2.8,3-5.4,4.6-8
		c0.8-1.3,1.9-2.3,2.8-3.5c1-1.3,2.1-2.7,3.1-4c1.8-2.3,3.8-4.5,5.6-6.8c1.3-1.6,2.7-2.6,3.2-4.7c0.4-1.6,0.9-3.3,1.2-5
		c0.2-0.9,0.2-1.9,0.3-2.8c0.1-1.1,0.5-2,0.7-3.1c0.4-1.8,0.4-3.6,0.9-5.4c0.4-1.3,0.8-2.9,1-4.3c0.2-1.3,0.5-2.3,0.9-3.6
		c0.5-1.3,0.9-2.6,1.3-3.9c0.4-1.2,0.3-2.6,0.8-3.8c0.3-0.8,0.7-1.7,0.9-2.5c0.2-0.8,0.7-1.4,1.1-2.2c0.3-0.7,1-1.3,1.2-2
		c0.2-0.4,0-0.9,0.1-1.3c0.1-0.3,0.5-0.7,0.7-1c0.5-0.9,0.5-1.5,0.8-2.4c0.3-0.9,1.2-1.7,1.7-2.4c1.2-1.4,2.1-3.2,3.1-4.6
		c1.1-1.4,1.6-2.7,3.2-3.7c1.6-1,3.4-1.2,5.1-0.7c1,0.3,1.8,0.3,2.4,1.3c0.3,0.5,1.1,1.5,1.2,2.1c0.1,0.5,0,2.2-0.1,2.7
		c-0.3,1-1.4,1.9-2.1,2.7c-0.8,1-1.4,2.2-2.2,3.3c-1,1.4-2.1,2.3-2.8,3.7c-0.4,0.7-0.6,1.4-1.1,2.1c-0.5,0.6-1.2,0.9-1.8,1.4
		c-0.7,0.6-1,1.3-1.3,2.1c-0.1,0.4-0.2,0.7-0.3,1c-0.4,0.8-0.8,1.5-1,2.4c-0.9,4.2-2.2,8.3-3.2,12.5c-0.6,2.3-0.7,4.4-1.3,6.8
		c-0.3,1.2-0.3,2.5-0.7,3.7c-0.9,3.1-0.4,6.5-0.9,9.6c-0.2,1.5-0.4,3-0.6,4.6c-0.2,1.7-0.1,3.4-0.3,5.1c-0.1,0.6-0.6,1.8,0.3,2
		c0.9,0.2,1.9-1.3,2.4-1.8c0.9-0.9,1.9-1.7,2.9-2.4c1.4-0.9,2.7-1.9,3.9-2.9c3.4-2.8,6.4-5.9,9.8-8.6c1.3-1,2.5-2,3.7-2.9
		c2.3-1.8,4.8-3.5,6.7-5.6c1-1.1,1.9-2,3.3-2.8c1.5-0.9,2.4-2.4,3.8-3.4c1.1-0.8,2.5-1.2,2.8-2.7c0.3-1.7,1-1.5,2-2.6
		c0.7-0.8,1.1-1.3,2.1-2c2.1-1.4,4.9-2.5,7.5-2.6c1.5,0,4,1.2,4.5,2.7c0.4,1.4,0.6,3.2,0.1,4.5c-0.3,0.8-2.5,2.5-2.2,3.2
		c0.1,0.1,0.1,0.4,0,0.5c-0.4,0.6-2,1.1-2.8,1.4c-1.1,0.4-1.6,0.5-2.2,1.7c-0.7,1.6-1.1,3.6-1.6,5.2c-0.5,1.9-1.2,3.8-1.6,5.8
		c-0.9,4.3-1.8,8.5-2.4,12.9c-0.1,1-0.5,1.8-0.6,2.9c-0.1,1.8,0.1,3.4-0.1,5.2c-0.1,0.9,0,1.6,0,2.5c0.1,1.3-0.1,2.9,0.2,4.3
		c0.3,1.3,0.6,2.6,1.4,3.7c2,2.8,4.9,4.1,8,5.2c1.3,0.4,2.5,1,3.9,1.3c0.7,0.1,3-0.1,3.2,0.6c-0.7,0.4-2.2,0.3-3.1,0.3
		c1.8,0.5,5.2,0.6,6.8,0.5c1.2-0.1,2.6-0.5,3.8-0.3c0.7,0.1,0.9,0.4,1.5,0.5c1.8,0.5,3.5-0.4,5.3-0.3c0.9,0,1.8,0.3,2.7,0
		c0.1-0.3,0.3-0.5,0.4-0.8c-0.3-0.1-0.8-0.3-1-0.6c-0.4-0.5,6.4-0.6,6.1-0.3c-0.2,0.1-0.4,0.3-0.6,0.4c0,0.3,0.2,0.5,0.4,0.7
		c0.7-0.6,2.4-0.7,3.4-0.8c1.4-0.2,2.7-0.3,4.1-0.7c0.9-0.3,1.8-0.6,2.7-0.9c0.5-0.1,1.3-0.7,1.8-0.7c0.8,0.1,0.8,1.3,1,2
		c-0.2,0.1-0.4,0.4-0.5,0.5C250.9,258.2,251.1,258.6,251.1,258.8 M170.6,228.2c-0.6,0.6-1.6,1.5-2,2.3c-0.2,0.4,0,1.1-0.4,1.3
		c-0.7,0.5-0.2-0.9-0.2-1.1c-0.6-0.1-1.1,1-1.5,1.4c-0.5,0.5-1.2,0.9-1.3,1.6c0.7-0.2,1-1.1,1.8-1c0,0.3-1.2,1.5-1.5,1.6
		c-0.5,0.3-0.8-0.1-1.2,0c-0.4,0.3-0.7,0.7-0.8,1.2c0,0,0,0,0.1,0.1c0.4-0.3,0.8-1,1.3-0.8c-0.3,0.7-1.3,1-1.6,1.8
		c0.9,0.1,1.9-1.6,2.6-2.1c0.8-0.6,1.5-1.3,2.3-2c0.3-0.3,0.6-0.7,0.9-1.1c0.5-0.5,0.4-0.6,0.7-1.1
		C169.9,229.7,171.8,228.4,170.6,228.2 M225.3,258c0.1-0.2-0.2-0.2-0.3-0.3c-0.4-0.1-0.9-0.1-1.2,0c-0.2,0-1.1,0.5-1.2,0.5
		c0.6,0.2,1.2-0.2,1.8-0.2C224.6,257.9,225.2,258.2,225.3,258 M226.8,258.1c0-0.1,0-0.1-0.1-0.1c-0.3-0.1-0.7,0.2-0.5,0.5
		C226.5,258.8,226.9,258.3,226.8,258.1 M229.6,257.8c0.1-0.7-1.8-0.4-2,0.1C227.9,258,229.6,258,229.6,257.8 M241.5,257.4
		c0,0,0.6-0.2,0.4-0.2c-0.7-0.3-1.7-0.1-2.3,0.4c0.3,0.3,0.8-0.1,1.1-0.2C240.9,257.4,241.2,257.5,241.5,257.4 M194.1,208.9
		c-0.2,0.7,0.7-0.1,0.9-0.2c0.3-0.2,1.1-0.7,1.2-1.1C196.2,206.8,194.2,208.4,194.1,208.9 M192.2,210.5c-0.5,0.3-1.5,0.6-1.5,1.3
		c0,0.4,1.8-1.2,1.9-1.2c0.4-0.3,1.4-0.7,1-1.4C193,209.3,192.8,210.2,192.2,210.5 M163.6,234.7c0.2-0.2,0.4-0.3,0.6-0.3
		c0.1-0.1,0.1-0.2,0.3-0.2L163.6,234.7 M158,240c0-0.1,1.7,0,1.3-1C159,238.1,158,239.6,158,240 M143.6,237.2
		c-1.7,2.3-3.1,5-4.2,7.6c-0.6,1.3-1.4,2.6-1.4,4.1c0.8,0.2,3-1.5,3.8-1.8c1-0.6,1.8-1.2,2.4-2.2c0.6-1.2,0.6-2.5,1-3.8
		c0.7-2.1,0.8-4.5,0.5-6.6C144.8,235.1,144.1,236.5,143.6,237.2"/>
	<path class="st0" d="M63.8,26.1c0.5-0.8,1.7-2.5,2.6-2.5c-0.3-1,1.2-0.6,1.8-0.9c0.9-0.3,1.7-1.1,2.6-1.4c1.8-0.5,3.3-1.1,5.3-1.2
		c0.9,0,1.8-0.2,2.7-0.2c0.9-0.1,1.7,0.2,2.7,0.2c1.7,0,3.1-0.2,4.7,0.2c1.5,0.3,3.1,0.1,4.6,0.6c3,1,6,2.4,8.6,4.2
		c2.7,1.9,4.2,4.2,5.9,6.9c0.4,0.7,0.8,1.7,0.9,2.5c0.1,0.9-0.4,3.5-1.8,3.5c-0.5,0.9-1.4,1.2-2.2,1.7c-0.7,0.4-1.1,1.2-1.9,1.4
		C98.1,42,95.6,42,93.2,42c-0.9,0-0.9-0.3-1.6-0.6c-0.6-0.2-1.3-0.3-2-0.5c-0.5-0.2-1.1-0.5-1.5-0.7c-0.8-0.2-1.4,0.1-2.2-0.2
		c-0.6-0.2-1.1-0.5-1.6-0.9c-1.1-0.9-1-2.3-1.8-3.3c-0.6-0.8-2.1-1-3.1-1.3c-0.7-0.2-1.5-0.2-2.3-0.4c-1.9-0.5-3.4-0.3-5.3-0.1
		c-0.9,0.1-1.7,0-2.5-0.2c-0.9-0.2-1.2-0.7-2.1-1c-0.9-0.3-1.2-0.1-2-0.7C63.5,30.7,62.5,28.1,63.8,26.1"/>
	<path class="st0" d="M43.1,121.3c-0.1,0.2,0.1,0.6,0,0.7c-0.2,0.3-0.5,0.1-0.7,0.3c-0.5,0.5-0.1,0.7-0.1,1.2c0,0.8-0.5,1.4-0.8,2.1
		c-0.3,0.7-0.5,1.3-1.1,1.8c-0.5-0.5,0.2-0.7,0.4-1.1c0.2-0.4,0-1,0.1-1.5c0.2-0.8,1.1-1.6,1.1-2.3c-0.8,0.2-1.2,2.3-2.2,2.2
		c-0.9-0.1,0.3-0.7,0.4-0.9c0.1-0.4-0.6-0.9,0.2-1.2c-0.1-1-0.8,0.3-1,0.5c-0.1-0.3-0.3-0.7-0.3-0.9c-0.1-0.3,0-0.8-0.3-0.9
		c-0.8-0.7-1.1,0.8-1.5,0.9c0.4,0.7,0.6,0.3,0.3,1.2c-0.1,0.2-0.3,0.2-0.3,0.5c0,0.2,0,0.6,0,0.9c-0.1,0.4-0.1,1.3-0.3,1.7
		c-0.3,0.5-1,0.7-1.5,1.1c-1.1,0.8-0.8,1.4-0.4,2.5c0.2,0.6,0.4,0.8,0.4,1.5c0,0.9-0.2,1.8-0.3,2.7c-0.1,0.8,0.2,1.6,0.2,2.5
		c-0.1,0.6-0.1,1.6-0.3,2.1c-0.6,1.4-2.3,2-3.5,2.4c-0.8,0.3-1.7,0-2.6,0c-1.4,0.1-2.2,0-3.4-0.7c-0.6-0.4-1.4-0.4-2-0.7
		c-0.5-0.3-1-0.8-1.3-1.3c-0.6-0.8-1.4-1.1-2-1.7c-0.8-0.7-1.4-1.7-2.3-2.3c-1-0.6-1.5-1.8-2.5-2.3c-1.3-0.6-1.8-1.2-2.9-2.2
		c-1.7-1.7-3.3-3.2-4.8-5.1c-0.3-0.5-0.6-0.8-0.8-1.3c-0.3-0.8-0.6-1-1.1-1.5c-0.7-0.7-1.3-2-1.6-2.9c-0.4-0.9-0.8-1.8-0.9-2.8
		c-0.8-0.9-1.6-2.7-2-3.8c-0.2-0.4-0.3-0.8-0.3-1.3c0-0.7-0.1-0.6-0.5-1.1c0.3-0.3,0.7-0.6,1.1-0.4c0-0.2,0-0.6,0-0.8
		c-0.1,0-0.2-0.1-0.3-0.1c0-0.2,0.3-0.5,0.3-0.6c0-0.1-0.1-0.4-0.1-0.5c0-0.2-0.6-0.7,0.2-0.8c0.1-0.6-0.3-0.9-0.5-1.4
		c-0.2-0.5-0.3-1.3-0.3-1.8c0.5,0.1,0.3,0.6,0.6,1c0.3-0.4,0-1.4-0.2-1.7c-0.3-0.5-0.9-0.7-0.8-1.4c0.7-0.4,0.6,0.5,1,0.8
		c0,0,0.3-2.8,0.3-3.1c0-1.1-0.4-2.1-0.4-3.2c0-1.4,0.2-2.8,0.3-4.1c0.1-1.3,0-2.6,0.1-3.9c0-0.7-0.4-1.2-0.4-1.7
		c0-0.2,0.4-0.4,0.4-0.6c0-0.2-0.1-0.7-0.1-0.9c0.2-0.1,0.3-0.3,0.4-0.4c-0.7-0.3,0-2.4,0-3.1c-0.2,0.1-0.3,0-0.4,0.3
		c0-0.3,0-0.4,0-0.7c0-0.3,0.1-0.5,0.2-0.5C1.7,80.8,1.9,81,2,81.1c0.1-0.3,0-0.6-0.2-0.7c0-0.4,0.3-0.5,0.4-0.8
		c0.1-0.5-0.4-0.5,0-0.8c0-0.4,0.3-1-0.1-1.1c0.1-0.5,0.4-0.9,0.3-1.5c0.5-0.2,0.7-1.1,0.2-1.4c-0.7,0.5-0.5,2.2-1,3
		C1.5,77,1.7,75.7,1.9,75c0.1-0.4,0.5-0.5,0.4-1.1c-0.1-0.5-0.7-0.5-0.8-1c0.2-0.2,0.5-0.2,0.7-0.2c0.1,0.6,0.4,1.1,0.2,1.7
		c0,0.1,0.1,0.1,0.1,0.2c0.1,0,0.2-0.1,0.2-0.1c0.1-0.6,0.1-1.3,0.3-1.8c0.4-1.4,0.6-3,0.6-4.4c-0.1,0.1-0.2,0.1-0.3,0.2
		c0-0.1-0.3-0.3-0.3-0.4c-0.1,0.1-0.2,0.2-0.3,0.4c-0.5-0.2,0-0.7,0-1.1c0.1,0.1,0.3,0.3,0.4,0.4c0.1,0,0.3-0.1,0.4-0.1
		c0.2,0.1,0.2,0.1,0.3,0.1c0-0.8,0.4-1.3,0.5-2c0.1-0.4-0.1-0.8,0-1.2C4.6,63.7,4.8,62.8,5,62c0.1-0.5,0.3-1,0.4-1.6
		c-0.7,0-1.2,3.8-1.6,4.5c-0.1-0.1-0.2-0.2-0.2-0.3c-0.1,0.2-0.2,0.4-0.2,0.7c-0.3-0.1-0.3-0.3-0.2-0.6c-0.1,0-0.3-0.1-0.5,0
		c-0.2-0.4,0.1-0.8,0.5-0.5c0.1-0.5,0.3-1.4,0.9-1.4c0-0.9-0.1-1.8,0.1-2.8c0.1-0.5,0.2-2.3,0.8-2.5c0.2,0.5-0.2,1.8,0.5,1.9
		c0.1-0.4,0.3-1.5,0-1.7c0.1-0.7,1-1.2,0.8-1.8c0.1-0.2,0.2-0.6-0.1-0.7C5.8,54.7,6,55.4,6,55.5c-0.1,0.3-0.2,1.4-0.8,0.8
		c0.2-0.5,0.3-1,0.4-1.5c0.2-1,0.7-1.9,0.9-2.9c0.2-1.1,0.4-2.3,0.8-3.4c0.2-0.7,0.3-1.6,0.6-2.4c0.3-0.7,0.3-1.6,0.5-2.3
		C8.6,43.1,9,42.4,9,41.7c0-0.6-0.1-1.1,0.1-1.7c0.1,0,0.1,0,0.2,0c0.3-1.1,0.1-2.1,0.7-3.2c0.6-1.1,1.4-2.1,2.4-2.7
		c0.6-0.4,1.5-0.8,2.2-0.8c0.3,0,0.7,0.2,0.9,0.1c0.4-0.1,0.4-0.5,0.8-0.7c0.5-0.2,0.7,0.2,1.1,0.3c1,0.3,2,0.5,2.6,1.3
		c0.3,0.4,0.8,0.7,1.1,1c0.2,0.3,0.2,0.8,0.5,1.1c0.7,1,1.5,1.7,1.8,3c0.3,1.3,0.6,2.5,0.5,3.8c-0.1,0.9-0.6,2-0.5,2.7
		c0,0.1,0.3,0.1,0.3,0.2c0,0.2,0,0.3,0,0.5c0.1,1-0.2,2.3-0.4,3.3c-0.3,1.8-0.5,3.7-0.6,5.5c-0.1,0.9,0.1,1.8,0,2.7
		c-0.1,0.9-0.4,1.7-0.5,2.6c-0.1,1.5-0.2,3.1-0.2,4.6c0,1.2-0.2,2.3-0.2,3.5c-0.1,1.1-0.2,2.2,0,3.3c0.2,1,0,2.1,0.1,3.2
		c0.1,1.4,0.1,2.7,0.1,4.1c0,1.3,0.2,2.7,0.3,4c0,1.3-0.1,2.6,0,3.9c0.1,0.9,0.4,1.7,0.6,2.6c0.3,1.5,0.6,2.9,0.8,4.5
		c0.1,0.8,0,1.4-0.1,2.2c0,0.8,0.3,1.5,0.3,2.2c-0.4,2.8-1.8,6.1-3.8,8c-0.5,0.4-1.2,0.7-1.5,1.3c-0.7,1.3,0,3,0.7,4.1
		c0.6,1.1,1.3,2.7,2.8,2.2c1.5-0.5,2.5-2.2,2.8-3.7c0.2-1.1,0.8-2.3,1.3-3.3c0.2-0.5,0.4-1.2,0.6-1.6c0.2-0.4,0.8-0.7,1.1-1.1
		c0.9-1,1.6-1.9,2.3-3.1c0.3-0.6,0.2-1.2,0.4-1.7c0.2-0.6,0.8-0.8,1.1-1.2c0.4-0.5,0.5-1.1,0.9-1.6c0.3-0.4,1-0.6,0.7-1.2
		c0.5-0.5,1-1.1,1.1-1.7c0.1-0.7-0.1-1.3,0.3-2.1c0.4-0.6,0.8-1.1,1.4-1c-0.1,0,0.3,0.3,0.3,0.3c0.1,0.1,0.3,0.1,0.4,0.1
		c1.9,1.1,0.3,3.9,2.1,4.9c0.3,1,1.1,1.7,1.4,2.7c0.1,0.5,0.1,0.9,0.2,1.4c0.3,0.9,0.4,0.6,0.1,1.4c-0.3,0.9-0.8,1.9-1.6,2.6
		c-0.7,0.6-1.2,0.6-1.3,1.7c-0.1,0.9-0.1,1.9,0.1,2.7c0.1,0.8,0.9,1.8,1.5,2.3c0.5,0.4,1.2,0.7,1.6,1.2c0.4,0.5,0.6,1.1,0.8,1.6
		c0.6,1.3,1.4,2.4,1.3,3.9c0,0.7-0.4,1.3,0,1.9c0.2,0.3,0.6,0,0.6,0.5C43.7,120.8,43.2,121,43.1,121.3 M3.4,93.7
		c-0.6,0.5,0,1.8,0,2.5c0,0.5,0,1,0.1,1.6c0,0.3-0.1,1.3,0.3,1.4c0.2-0.6,0-1.2,0.1-1.8c0.1-1,0.1-2.1,0.1-3.1
		C3.9,94,3.6,93.6,3.4,93.7 M2.4,93.7c-0.4,0.2-0.2,2-0.2,2.5C2.2,97.2,2,98.1,2,99c0,0.4,0.1,0.8,0.2,1.2c0,0.5-0.2,0.7-0.2,1.1
		c-0.1,0.7,0,1.7,0,2.4c0.5-0.1,0.3-1.6,0.3-2c0.1-0.6,0.3-1.1,0.3-1.8c0-0.6-0.2-1.2-0.1-1.8c0-0.4,0.1-0.8,0.1-1.2
		C2.6,96,2.9,94.6,2.4,93.7 M3.5,87.4c-0.2,0.2-0.1,0.9-0.2,1.2c-0.1,0.4-0.2,0.8-0.2,1.3c0,0.5,0.1,1,0.1,1.5c0,0.2,0,0.6,0.1,0.8
		c0.3,0.4,0.4,0,0.5-0.3c0-0.4-0.3-0.9-0.2-1.4c0-0.3,0-0.7,0.1-1.1c0.1-0.4,0.3-0.8,0.3-1.3C3.9,87.8,3.8,86.9,3.5,87.4 M3.3,66.9
		c-0.3-0.2,0.2-0.7,0.1-0.9c-0.1-0.3-0.3-0.2-0.4,0.1c-0.1,0.2-0.1,1.1,0.2,1.2c0.2,0.1,0.5-0.2,0.6-0.4c0.1-0.2,0.2-0.9-0.1-0.6
		C3.4,66.4,3.5,66.8,3.3,66.9 M0.3,88.1c-0.2,0.2-0.4,0.1-0.3,0.5c0,0.1,0.3,0.6,0.5,0.5c0.2-0.1,0-0.4,0.1-0.5
		c0.2-0.4,0.6-0.5,0.4-1C0.8,87.7,0.4,88.1,0.3,88.1 M0.7,86.8c0.3-0.1,0.3-1.3,0-1.4C0.5,85.5,0.2,87,0.7,86.8 M0.6,83.6
		c-0.3,0-0.3,0.8,0.1,0.8C1,84.3,0.9,83.6,0.6,83.6 M0.8,78.9c-0.2,0.3-0.1,0.8-0.1,1.2c0,0.4,0,0.9,0.1,1.3
		c0.4,0.2,0.3-0.4,0.3-0.6c0-0.5,0-1,0-1.5C1.1,79.1,1.1,78.5,0.8,78.9 M2.2,69.5c0,0.2-0.1,0.8,0.1,0.9c0,0,0.1,0,0.1,0
		c0.3,0,0.3-1.2,0.1-1.5C2.5,68.8,2.2,69.4,2.2,69.5 M2.2,89.6c0.3-0.5,0.3-1.9,0.3-2.2c0-0.5,0-1,0-1.5c0-0.4,0.2-1.3,0-1.5
		C1.7,84.7,2.3,89.1,2.2,89.6"/>
	<path class="st0" d="M59.6,109.1c-0.2-0.1-0.5,0.1-0.8-0.1c-0.2-0.1-0.1-0.3-0.3-0.4c-0.3-0.1-0.9-0.3-1.3-0.3
		c-0.1-1.3,0-2.4,0.3-3.6c0.3-1.2,0.5-2.3-0.7-3.1c-0.8-0.5-1.3-1.2-2-1.7c-0.5-0.4-1.2-1-1.8-1.2c-0.8-0.2-1.5-0.1-1-1.2
		c0.6-1.4,2.9-2,4.1-2.8c2.8-1.8,5.7-3.4,9.1-2.7c0.6,0.1,1,0.3,1.6,0.2c1.5-0.2,2.8-0.4,4.3,0.1c0.6,0.2,0.9,0.4,1.5,0.4
		c0.6,0,1.2,0,1.8,0c1.8,0,3.6,0.6,5.4,0.5c1.1-0.1,2,0.3,2.3-1c0.2-0.8,0.2-1.7,0.2-2.5c0-1,0.2-2,0.2-3c0-0.9-0.5-1.6-0.5-2.5
		c0-0.5,0.1-1.1,0.1-1.5c0,0-0.1-0.7-0.2-0.8c-0.5-1.3-0.3-2.5-0.3-3.9c0-0.7,0.2-1.4,0.1-2.1c-0.1-0.7-0.1-1-0.1-1.8
		c0.1-1.4-0.4-2.6-0.4-4c0-0.7-0.2-1.6-0.6-2.1c-0.6-0.8-1.3-0.3-2.1-0.5c-0.5-0.1-1.3-0.2-1.5-0.6c-0.5-0.1-1.1-0.2-1.4-0.6
		c-0.8,0.2-1-0.5-1.6-0.8c-0.6-0.3-1.1-0.2-1.7-0.6c-0.6-0.3-1.3-0.4-1.9-0.7c-0.7-0.5-1.4-1.1-2.1-1.6c-0.6-0.4-1.4-1.1-1.6-1.9
		c-1.2-4.2,7.5-4.3,9.6-4.7c0.4-0.1,0.5-0.3,0.9-0.3c0.5,0,0.9,0.1,1.4,0c0.6-0.1,2.3-0.5,2.7-1.1c0.7-0.8-0.3-1.4-0.3-2.3
		c0-0.7,0.4-1.9,0.7-2.5c0.2-0.4,0.6-0.4,0.9-0.8c0.7-0.8,0.9-1.5,2.3-1.3c0.4,0.1,0.8,0.3,1.2,0.3c0.5,0,1,0,1.5,0
		c1,0,1.9,0.3,2.6,1c0.5,0.5,1.3,1.4,1.4,2.2c0.2,1.1-0.4,1.6,0.6,2.3c0.7,0.5,2.1,0.6,2.9,1.1c0.9,0.4,1.7,0.5,2.6,0.9
		c0.2,0.1,0.4,0,0.6,0.1c-0.1,0.1-0.3,0.3-0.4,0.4c0.5,0.2,1,0.1,1.5,0.3c0,0.3,0.1,0.5-0.1,0.8c0.7,0.9,1.4,1.4,1.3,2.6
		c0.3-0.1,0.6,0,1,0.1c0.1,0.4-0.1,0.7-0.4,0.7c0,0.7,0.1,1.3,0.1,1.9c0,0.1-0.2,0.2-0.2,0.3c0,0.2,0.1,0.3,0.1,0.5
		c0,0.5,0,1-0.1,1.5c-0.5,0.3-0.9,0.4-1.4,0.8c-0.4,0.4-0.6,0.9-1,1.2c-0.9,0.7-2.3,1.1-3.3,1.4c-1.3,0.4-2.5,0.5-2.2,2
		c0.1,0.5,0.3,0.9,0.5,1.3c0.5,1,0.5,2.4,0.7,3.5c0.1,0.4,0.3,0.7,0.4,1c0.1,0.6,0,1.2,0.1,1.7c0.1,0.5,0.3,0.9,0.3,1.3
		c0,0.4,0,0.6,0.1,1c0.1,0.3,0.2,0.4,0.3,0.7c0.2,0.7-0.2,1.5-0.1,2.2c0.1,0.7,0.4,1.2,0.3,2c0,0.6-0.1,1.2,0,1.9
		c0.1,0.7,0.5,1.2,0.6,1.8c0.4,1.9,0.1,4.3,0,6.2c0,0.5-0.2,1-0.2,1.5c0,0.8,0.3,0.7,0.6,1.2c0.2,0.5,0.1,0.8,0.5,1.2
		c1.3,1.5,3.1,1.9,4.7,3c0.9,0.7,1.8,1.4,2.8,1.9c1.1,0.5,1.8,1.3,2.8,2c1.5,1,2,2.1,1.9,3.9c-0.1,1.3-0.6,2.5-0.7,3.8
		c-0.1,0.7-0.3,1.3-0.6,2c-0.2,0.6-0.3,1.4-0.9,1.8c-1.4,0.9-3-0.9-4.1-1.6c-0.8-0.6-1.8-0.9-2.7-1.4c-0.4-0.2-2-0.8-2.1-1.3
		c-0.7,0.1-1.2-0.1-1.9-0.5c-0.5-0.3-0.8-0.7-1.3-0.9c-0.8-0.3-2-0.9-2.9-0.8c-1.6,0.2-1.8,2.8-3.7,2.9c-0.2,1-0.9,1.4-1.6,2
		c-0.1,0.1-1.5,1.6-1.6,1.3c-0.1-0.3-0.1-0.4,0.1-0.7c0-0.1,0-0.2,0-0.4c-0.9,0-1.9,1-2.8,1.4c-0.7,0.2-1.3,0.5-2,0.7
		c-0.7,0.2-1.6,0.2-2.3,0.3c-0.8,0.2-1.2,0.2-1.9,0c-1.5-0.4-2.9,0.5-4.3-0.4c-0.6-0.3-1.1-0.7-1.6-1.1c-0.6-0.4-0.9-0.6-1.4-1
		c-0.6-0.5-1.2-0.4-1.9-0.7c-1-0.4-1.2-1.3-1.9-1.9c-0.5-0.5-1.5-0.7-2.2-0.9c-0.8-0.2-1.2-0.7-1.8-1.2
		C61.4,110.1,60.5,109.3,59.6,109.1 M69,105.6c0.6-0.2,0.5-0.7,1.3-0.7c0.5,0,0.9,0.2,1.4,0.3c0.7,0.2,2.2,0.2,1.1,1.1
		c0.3,0.5,0.8,0.2,1.2,0.1c0.3-0.1,1.1-0.2,1.2-0.5c-0.4-0.4-1.7,0.3-1.7-0.4c0-0.1,0.7-0.7,0.8-0.8c0.3-0.2,0.6-0.5,1-0.7
		c0.7-0.3,1.3-0.5,1.8-1.1c0.9-1.2-0.4-0.5-1.1-0.6c-0.5-0.1-0.3-0.3-0.7-0.4c-0.4-0.1-0.7,0-1.1,0c-0.9,0-1.7-0.2-2.5-0.3
		c-1.7-0.3-3.2-0.2-4.9,0.3c-0.3,0.1-2.4,0.6-2.5,0.9C63.9,105.2,68.6,103.8,69,105.6"/>
</g>
</svg>
