<?xml version="1.0" encoding="utf-8"?>
<!-- Generator: Adobe Illustrator 21.1.0, SVG Export Plug-In . SVG Version: 6.00 Build 0)  -->
<svg version="1.1" id="レイヤー_1" xmlns="http://www.w3.org/2000/svg" xmlns:xlink="http://www.w3.org/1999/xlink" x="0px"
	 y="0px" viewBox="0 0 140 59.5" style="enable-background:new 0 0 140 59.5;" xml:space="preserve">
<style type="text/css">
	.st0{fill:#A4811B;}
</style>
<g>
	<path class="st0" d="M68.9,38.1c0,0-16.2-7.6-18-17.9c0,0,18.9,9.5,36.5,0.9c0,0-9.7,10.3-26.6,6.4l10.3,10.6l10.6,0
		c0,0,7.7-11,8.5-17.4c0,0,10.3,15.6,12.2,17.4l37.5,0c0,0-29.7-3.5-49.7-19.2c0,0-18.5,11.6-40-1.2c0,0-19.6,16.8-49.4,20.3
		L68.9,38.1z"/>
	<g>
		<g>
			<path class="st0" d="M28.4,10.3C28.4,10.4,28.4,10.4,28.4,10.3l-2.6,0c0,0,0,0,0,0v-0.2c0,0,0,0,0.1,0h0.6c0.1,0,0.1,0,0.1,0
				c0,0,0-0.1,0-0.3c0-0.3,0-1,0-2.2c0,0,0-0.1-0.1-0.1H24c-0.1,0-0.1,0-0.1,0.1c0,0.9,0,1.4,0,1.6c0,0.6,0.1,0.9,0.2,0.9h0.7
				c0,0,0,0,0,0.1v0.2c0,0,0,0,0,0h-2.5c0,0,0,0,0,0c0,0,0,0,0,0v-0.2c0,0,0-0.1,0-0.1h0.5c0.1,0,0.1,0,0.1,0c0,0,0-0.1,0-0.3
				c0,0,0-0.4,0-1.1c0-0.7,0-1.1,0-1.2c0-0.1,0-0.4,0-0.9c0-0.5,0-0.8,0-0.8C23,5.3,23,5,22.9,5h-0.6c0,0-0.1,0-0.1,0V4.8
				c0,0,0,0,0.1,0h2.5c0,0,0.1,0,0.1,0.1V5c0,0,0,0-0.1,0h-0.6C24,5,24,5.1,24,5.1c0,0,0,0.3,0,1c0,0.6,0,0.9,0,1
				c0,0.1,0,0.1,0.1,0.1h2.5c0.1,0,0.1,0,0.1-0.1c0,0,0-0.2,0-0.7c0-0.4,0-0.6,0-0.7c0-0.5-0.1-0.7-0.2-0.7h-0.7c0,0,0,0,0-0.1V4.8
				c0,0,0,0,0.1,0h2.5c0,0,0.1,0,0.1,0.1V5c0,0,0,0.1-0.1,0.1h-0.6c-0.1,0-0.1,0-0.1,0c0,0,0,0.1,0,0.1v2.2c0,1.1,0,1.8,0,1.9
				c0,0.5,0.1,0.8,0.2,0.8h0.6c0,0,0,0,0,0.1V10.3z"/>
			<path class="st0" d="M32.8,8.4c0,0.4-0.1,0.7-0.2,1c-0.2,0.3-0.4,0.6-0.7,0.8c-0.3,0.2-0.7,0.3-1.1,0.3c-0.4,0-0.7,0-0.9-0.1
				c-0.4-0.2-0.7-0.4-0.8-0.7c-0.2-0.3-0.3-0.7-0.3-1.1c0-0.4,0.1-0.8,0.3-1.1c0.2-0.3,0.4-0.5,0.8-0.7c0.3-0.1,0.6-0.2,1.1-0.2
				c0.4,0,0.7,0.1,0.9,0.2c0.3,0.2,0.5,0.4,0.6,0.7C32.8,7.7,32.8,8.1,32.8,8.4z M32,8.6c0-0.5-0.1-1-0.4-1.3
				c-0.3-0.4-0.6-0.5-1-0.5c-0.3,0-0.5,0.1-0.6,0.3c-0.2,0.2-0.2,0.6-0.2,1c0,0.5,0.1,0.9,0.3,1.3c0.1,0.3,0.3,0.4,0.4,0.6
				c0.2,0.1,0.3,0.2,0.5,0.2c0.2,0,0.4,0,0.5-0.1c0.2-0.1,0.3-0.3,0.4-0.5C32,9.3,32,9,32,8.6z"/>
			<path class="st0" d="M40,10.3C40,10.4,40,10.4,40,10.3l-1.8,0c0,0,0,0,0,0v-0.2c0,0,0,0,0,0h0.3c0,0,0.1,0,0.1-0.1
				c0-0.3,0.1-1,0.1-1.9c0-0.5-0.1-0.8-0.2-0.9c-0.1-0.1-0.3-0.2-0.6-0.2c-0.3,0-0.5,0.1-0.7,0.2c0,0.1,0.1,0.4,0.1,0.7
				c0,0.2,0,0.5,0,0.9c0,0.4,0,0.7,0,0.6c0,0.3,0,0.4,0,0.3c0,0.2,0,0.2,0.1,0.2h0.4c0,0,0,0,0,0v0.2c0,0,0,0,0,0h-1.7
				c0,0,0,0-0.1,0v-0.2c0,0,0,0,0,0h0.3c0,0,0.1,0,0.1-0.1c0-0.3,0-1,0-1.9c0-0.5-0.1-0.8-0.2-0.9c-0.1-0.2-0.3-0.2-0.6-0.2
				c-0.2,0-0.5,0-0.8,0.1c0,0-0.1,0.1-0.1,0.1c0,0,0,0.3,0,1c0,0.6,0,1,0,1c0,0.6,0,0.8,0.1,0.8h0.4c0,0,0,0,0,0v0.2c0,0,0,0,0,0
				h-1.9c0,0,0,0,0,0c0,0,0,0,0,0v-0.2c0,0,0,0,0,0h0.5c0,0,0.1,0,0.1-0.1c0-0.2,0-0.6,0-1.3c0-0.7,0-1.1,0-1.3c0-0.4,0-0.6-0.1-0.6
				h-0.5c0,0,0,0,0-0.1V6.6c0,0,0,0,0,0h0.6c0,0,0.1,0,0.2,0c0.1,0,0.2,0,0.2,0c0,0,0.1,0,0.2,0c0.1,0,0.2,0,0.2,0
				c0,0,0.1,0,0.1,0.1c0,0,0,0.1,0,0.2c0,0.1,0,0.1,0,0.2c0,0.1,0,0.1,0.1,0.1c0.1-0.1,0.3-0.2,0.5-0.3c0.2-0.1,0.5-0.2,0.7-0.2
				c0.4,0,0.6,0.1,0.8,0.3C36.9,6.9,37,7,37,7c0.1-0.1,0.3-0.2,0.6-0.3c0.3-0.1,0.5-0.2,0.7-0.2c0.4,0,0.6,0.1,0.8,0.3
				C39.3,7,39.4,7.4,39.4,8c0,0.2,0,0.5,0,0.9c0,0.4,0,0.7,0,0.6c0,0.3,0,0.4,0,0.3c0,0.2,0,0.2,0.1,0.2h0.4c0,0,0.1,0,0.1,0V10.3z"
				/>
			<path class="st0" d="M44,10.1C44,10.1,44,10.1,44,10.1c-0.2,0.2-0.3,0.3-0.4,0.4c0,0-0.1,0-0.1,0c-0.2,0-0.4-0.1-0.6-0.2
				c-0.2-0.2-0.4-0.3-0.4-0.5c0,0,0-0.1-0.1,0c-0.1,0.2-0.2,0.3-0.4,0.4c-0.2,0.2-0.5,0.3-0.8,0.3c-0.2,0-0.4,0-0.6-0.1
				c-0.2-0.1-0.3-0.3-0.3-0.5c0-0.3,0.1-0.5,0.3-0.7c0.2-0.2,0.4-0.4,0.7-0.5c0.3-0.1,0.7-0.2,1-0.3c0,0,0,0,0-0.1
				c0-0.4,0-0.7,0-0.8c0-0.1-0.1-0.2-0.2-0.3c-0.1-0.1-0.3-0.1-0.4-0.1c-0.2,0-0.3,0-0.5,0.1c-0.1,0-0.1,0.1-0.1,0.2v0.2
				c0,0.1,0,0.3-0.1,0.4c-0.1,0.2-0.2,0.2-0.5,0.2c-0.2,0-0.3-0.1-0.3-0.2c0-0.1,0.1-0.3,0.2-0.5c0.1-0.2,0.3-0.3,0.5-0.4
				c0.3-0.2,0.6-0.2,1-0.2c0.4,0,0.6,0.1,0.8,0.2C43,6.9,43.1,7,43.1,7.1c0,0.1,0.1,0.3,0.1,0.4l-0.1,1.6c0,0.3,0.1,0.5,0.2,0.7
				C43.5,9.9,43.7,10,44,10.1C44,10.1,44,10.1,44,10.1z M42.4,8.6C42.4,8.5,42.3,8.5,42.4,8.6c-0.3-0.1-0.5,0-0.7,0.1
				c-0.4,0.2-0.6,0.5-0.6,0.8c0,0.2,0,0.3,0.2,0.4c0.1,0.1,0.2,0.1,0.3,0.1c0.2,0,0.4-0.2,0.6-0.4c0-0.1,0.1-0.1,0.1-0.2
				C42.3,9.1,42.4,8.8,42.4,8.6z"/>
			<path class="st0" d="M47.2,7c0,0.2-0.1,0.4-0.2,0.5c0,0,0,0.1-0.1,0.1c0,0-0.1,0-0.1,0c-0.1-0.1-0.2-0.2-0.2-0.3
				c-0.1-0.1-0.3-0.1-0.4-0.1c-0.3,0-0.5,0.1-0.6,0.2c0,0,0,0.1,0,0.1c0,0,0,0.3,0,1c0,0.6,0,0.9,0,1c0,0.5,0,0.7,0.1,0.7l0.7,0
				c0,0,0,0,0,0.1v0.1c0,0,0,0,0,0l-2.2,0c0,0-0.1,0-0.1,0v-0.1c0,0,0-0.1,0-0.1h0.4c0.1,0,0.1,0,0.1-0.1V7.4c0-0.4,0-0.6-0.1-0.6
				h-0.5c0,0,0,0,0,0V6.6c0,0,0,0,0,0h0.6c0.2,0,0.4,0,0.5,0c0.1,0,0.2-0.1,0.3-0.1c0,0,0.1,0,0.1,0.1c0,0,0,0.1,0,0.2
				c0,0.1,0,0.2,0,0.2c0,0.1,0,0.1,0.1,0.1c0.2-0.2,0.3-0.3,0.3-0.3c0.2-0.2,0.4-0.2,0.6-0.2c0.3,0,0.5,0.1,0.6,0.3
				C47.2,6.9,47.2,7,47.2,7z"/>
			<path class="st0" d="M51,9.7C51,9.7,51,9.8,51,9.7c-0.2,0.2-0.4,0.4-0.7,0.5c-0.3,0.1-0.6,0.2-1,0.2c-0.5,0-0.9-0.1-1.2-0.4
				c-0.3-0.3-0.5-0.8-0.6-1.3c0-0.3,0-0.6,0.1-0.8c0.1-0.4,0.3-0.7,0.5-1c0.3-0.3,0.6-0.4,1-0.4c0.3,0,0.6,0.1,0.9,0.2
				c0.3,0.1,0.5,0.2,0.7,0.5c0.1,0.1,0.2,0.3,0.3,0.4c0,0,0,0.1,0,0.1c0,0,0,0.1-0.1,0.1c0,0-0.2,0.1-0.5,0.1
				C50.1,7.9,49.9,8,49.8,8c-0.2,0-0.3,0.1-0.5,0.1c-0.3,0-0.5,0.1-0.6,0.1c0,0-0.1,0-0.2,0c-0.1,0-0.2,0-0.2,0c0,0,0,0.1,0,0.2
				c0,0.5,0.2,1,0.5,1.3c0.1,0.1,0.3,0.2,0.5,0.3c0.2,0.1,0.4,0.1,0.6,0.1c0.3,0,0.6-0.1,0.7-0.2c0.1-0.1,0.2-0.1,0.3-0.2
				c0,0,0,0,0,0C50.9,9.6,51,9.6,51,9.7C51,9.7,51,9.7,51,9.7z M50.1,7.6c0,0,0,0,0-0.1c-0.1-0.1-0.1-0.2-0.1-0.2
				c-0.1-0.1-0.2-0.2-0.3-0.3c-0.2-0.1-0.4-0.2-0.6-0.2c-0.2,0-0.3,0.1-0.5,0.3c0,0.1-0.1,0.2-0.1,0.4c0,0.2-0.1,0.3-0.1,0.4
				c0,0.1,0,0.1,0,0.1c0.1,0,0.3,0,0.6,0c0.1,0,0.3,0,0.5-0.1C49.8,7.7,49.9,7.7,50.1,7.6C50,7.7,50.1,7.6,50.1,7.6z"/>
			<path class="st0" d="M57.2,8.9c0,0.4-0.2,0.8-0.5,1.1c-0.2,0.2-0.4,0.3-0.6,0.4c-0.2,0.1-0.5,0.1-0.9,0.1c-0.6,0-1.1-0.1-1.6-0.4
				c0,0-0.1-0.1-0.1-0.2c0,0,0-0.2,0-0.5c0-0.3,0-0.5,0-0.5c0,0,0,0,0.1,0h0.2c0.1,0,0.1,0,0.1,0c0,0.1,0,0.2,0,0.3
				c0,0.2,0.2,0.5,0.4,0.7c0.2,0.2,0.5,0.3,0.9,0.3c0.5,0,0.9-0.2,1.1-0.5c0.1-0.2,0.1-0.3,0.1-0.6c0-0.2-0.1-0.4-0.2-0.5
				C56,8.3,55.7,8.1,55.2,8c-0.5-0.2-0.9-0.4-1.2-0.6c-0.3-0.3-0.4-0.6-0.4-1.1c0-0.5,0.2-0.9,0.6-1.2c0.3-0.3,0.7-0.4,1.3-0.4
				c0.6,0,1,0.1,1.3,0.4c0,0,0.1,0.1,0.1,0.1c0,0.2,0,0.5,0,0.9c0,0.1,0,0.1,0,0.1h-0.2c0,0-0.1,0-0.1,0c0-0.1-0.1-0.2-0.1-0.3
				c-0.1-0.2-0.2-0.3-0.3-0.4c-0.3-0.2-0.6-0.3-1-0.3c-0.3,0-0.5,0.1-0.7,0.2c-0.2,0.2-0.3,0.4-0.3,0.7c0,0.2,0.1,0.4,0.3,0.6
				c0.1,0.1,0.4,0.2,1,0.5c0.3,0.1,0.6,0.2,0.7,0.3c0.2,0.1,0.5,0.3,0.6,0.4C57.1,8.1,57.2,8.4,57.2,8.9z"/>
			<path class="st0" d="M61.4,10.1C61.4,10.1,61.4,10.1,61.4,10.1c-0.2,0.2-0.3,0.3-0.4,0.4c0,0-0.1,0-0.1,0c-0.2,0-0.4-0.1-0.6-0.2
				c-0.2-0.2-0.4-0.3-0.4-0.5c0,0,0-0.1-0.1,0c-0.1,0.2-0.2,0.3-0.4,0.4c-0.2,0.2-0.5,0.3-0.8,0.3c-0.2,0-0.4,0-0.6-0.1
				c-0.2-0.1-0.3-0.3-0.3-0.5c0-0.3,0.1-0.5,0.3-0.7c0.2-0.2,0.4-0.4,0.7-0.5c0.3-0.1,0.7-0.2,1-0.3c0,0,0,0,0-0.1
				c0-0.4,0-0.7,0-0.8c0-0.1-0.1-0.2-0.2-0.3c-0.1-0.1-0.3-0.1-0.4-0.1c-0.2,0-0.3,0-0.5,0.1c-0.1,0-0.1,0.1-0.1,0.2v0.2
				c0,0.1,0,0.3-0.1,0.4c-0.1,0.2-0.2,0.2-0.5,0.2c-0.2,0-0.3-0.1-0.3-0.2c0-0.1,0.1-0.3,0.2-0.5c0.1-0.2,0.3-0.3,0.5-0.4
				c0.3-0.2,0.6-0.2,1-0.2c0.4,0,0.6,0.1,0.8,0.2c0.1,0.1,0.1,0.2,0.2,0.3c0,0.1,0.1,0.3,0.1,0.4l-0.1,1.6c0,0.3,0.1,0.5,0.2,0.7
				C61,9.9,61.1,10,61.4,10.1C61.4,10.1,61.4,10.1,61.4,10.1z M59.8,8.6C59.8,8.5,59.8,8.5,59.8,8.6c-0.3-0.1-0.5,0-0.7,0.1
				c-0.4,0.2-0.6,0.5-0.6,0.8c0,0.2,0,0.3,0.2,0.4C58.8,10,58.9,10,59,10c0.2,0,0.4-0.2,0.6-0.4c0-0.1,0.1-0.1,0.1-0.2
				C59.8,9.1,59.8,8.8,59.8,8.6z"/>
			<path class="st0" d="M66.2,10.3C66.2,10.4,66.2,10.4,66.2,10.3l-1.3,0c0,0-0.1,0-0.1,0c0,0-0.1-0.2-0.4-0.4
				c-0.2-0.3-0.3-0.4-0.4-0.4c-0.2-0.2-0.4-0.4-0.6-0.7c0-0.1-0.1-0.1-0.1,0c-0.1,0.1-0.2,0.2-0.4,0.3C63,9,63,9.1,63,9.1
				c0,0.7,0.1,1,0.2,1h0.5c0,0,0.1,0,0.1,0v0.2c0,0,0,0,0,0h-2.1c0,0,0,0,0,0v-0.2c0,0,0,0,0,0h0.5c0,0,0.1,0,0.1-0.1V5.6
				c0-0.7-0.1-1-0.2-1h-0.5c0,0,0,0,0,0V4.3c0,0,0,0,0,0c0,0,0,0,0,0h0.3c0.3,0,0.5,0,0.7-0.1C62.9,4.1,63,4.1,63,4.1
				c0,0,0.1,0,0.1,0.1c0,0,0,0.7,0,2.2c0,1.5,0,2.2,0,2.2c0,0.1,0,0.1,0.1,0.1c0.1-0.1,0.4-0.3,0.7-0.5c0.4-0.3,0.7-0.6,0.9-0.8
				c0.1-0.2,0.2-0.3,0.2-0.4c0-0.1-0.1-0.1-0.2-0.1h-0.3c0,0,0,0,0,0V6.6c0,0,0,0,0,0h0.3c0.3,0,0.6,0,0.8,0c0,0,0.1,0,0.2,0
				c0.1,0,0.1,0,0.1,0c0,0,0,0,0,0.1c0,0.1,0,0.1-0.1,0.2c-0.1,0.2-0.3,0.5-0.6,0.7c-0.3,0.3-0.6,0.5-0.9,0.7c0,0,0,0.1,0,0.1
				c0.2,0.2,0.4,0.5,0.7,0.8c0.2,0.2,0.4,0.5,0.7,0.7c0.2,0.2,0.3,0.3,0.4,0.3h0.2c0,0,0,0,0,0c0,0,0,0,0,0V10.3z"/>
			<path class="st0" d="M70,9.7C70,9.7,70,9.8,70,9.7c-0.2,0.2-0.4,0.4-0.7,0.5c-0.3,0.1-0.6,0.2-1,0.2c-0.5,0-0.9-0.1-1.2-0.4
				c-0.3-0.3-0.5-0.8-0.6-1.3c0-0.3,0-0.6,0.1-0.8c0.1-0.4,0.3-0.7,0.5-1c0.3-0.3,0.6-0.4,1-0.4c0.3,0,0.6,0.1,0.9,0.2
				c0.3,0.1,0.5,0.2,0.7,0.5c0.1,0.1,0.2,0.3,0.3,0.4c0,0,0,0.1,0,0.1c0,0,0,0.1-0.1,0.1c0,0-0.2,0.1-0.5,0.1
				C69.1,7.9,68.9,8,68.8,8c-0.2,0-0.3,0.1-0.5,0.1c-0.3,0-0.5,0.1-0.6,0.1c0,0-0.1,0-0.2,0c-0.1,0-0.2,0-0.2,0c0,0,0,0.1,0,0.2
				c0,0.5,0.2,1,0.5,1.3c0.1,0.1,0.3,0.2,0.5,0.3c0.2,0.1,0.4,0.1,0.6,0.1c0.3,0,0.6-0.1,0.7-0.2c0.1-0.1,0.2-0.1,0.3-0.2
				c0,0,0,0,0,0C69.9,9.6,69.9,9.6,70,9.7C70,9.7,70,9.7,70,9.7z M69,7.6c0,0,0,0,0-0.1c-0.1-0.1-0.1-0.2-0.1-0.2
				c-0.1-0.1-0.2-0.2-0.3-0.3c-0.2-0.1-0.4-0.2-0.6-0.2c-0.2,0-0.3,0.1-0.5,0.3c0,0.1-0.1,0.2-0.1,0.4c0,0.2-0.1,0.3-0.1,0.4
				c0,0.1,0,0.1,0,0.1c0.1,0,0.3,0,0.6,0c0.1,0,0.3,0,0.5-0.1C68.7,7.7,68.9,7.7,69,7.6C69,7.7,69,7.6,69,7.6z"/>
			<path class="st0" d="M76.6,8.9c0,0.4-0.2,0.8-0.5,1.1c-0.4,0.3-0.9,0.5-1.5,0.5c-0.1,0-0.3,0-0.7,0c-0.4,0-0.7,0-0.9,0h-0.7
				c0,0,0,0,0,0v-0.2c0,0,0,0,0,0h0.6c0.1,0,0.1,0,0.1-0.1c0,0,0-0.4,0-1.2c0-0.8,0-1.2,0-1.3V5.8C73,5.3,72.9,5,72.8,5h-0.7
				c0,0,0,0,0,0V4.8c0,0,0,0,0,0h1.4c0,0,0.2,0,0.5,0c0.3,0,0.4,0,0.5,0h0.4c0.3,0,0.4,0,0.6,0.1C75.7,4.9,75.9,5,76,5.1
				c0.2,0.2,0.4,0.5,0.4,0.8c0,0.3-0.1,0.6-0.4,0.9c-0.2,0.2-0.4,0.4-0.7,0.5c0,0,0,0,0,0c0.3,0.1,0.6,0.2,0.9,0.5
				C76.5,8.1,76.6,8.5,76.6,8.9z M75.5,6.3c0-0.4-0.1-0.7-0.4-0.9c-0.2-0.2-0.6-0.3-1-0.4C74.1,5,74,5,74,5c0,0-0.1,0-0.1,0.1
				c0,0.1,0,0.8,0,2.1c0,0,0,0,0,0c0,0,0,0,0.1,0c0.1,0,0.2,0,0.3,0c0.2,0,0.4,0,0.7,0.1c0.1,0,0.1,0,0.1,0c0.1-0.1,0.2-0.2,0.3-0.3
				C75.5,6.7,75.5,6.5,75.5,6.3z M75.7,9c0-0.4-0.1-0.8-0.4-1c-0.3-0.3-0.7-0.4-1.2-0.4c-0.1,0-0.1,0-0.2,0c0,0,0,0,0,0.1
				c0,1,0,1.6,0,1.8c0,0.4,0,0.6,0.1,0.6c0.1,0.1,0.3,0.1,0.5,0.1c0.3,0,0.6-0.1,0.8-0.3C75.6,9.7,75.7,9.4,75.7,9z"/>
			<path class="st0" d="M80.1,7c0,0.2-0.1,0.4-0.2,0.5c0,0,0,0.1-0.1,0.1c0,0-0.1,0-0.1,0c-0.1-0.1-0.2-0.2-0.2-0.3
				c-0.1-0.1-0.3-0.1-0.4-0.1c-0.3,0-0.5,0.1-0.6,0.2c0,0,0,0.1,0,0.1c0,0,0,0.3,0,1c0,0.6,0,0.9,0,1c0,0.5,0,0.7,0.1,0.7l0.7,0
				c0,0,0,0,0,0.1v0.1c0,0,0,0,0,0l-2.2,0c0,0-0.1,0-0.1,0v-0.1c0,0,0-0.1,0-0.1h0.4c0.1,0,0.1,0,0.1-0.1V7.4c0-0.4,0-0.6-0.1-0.6
				h-0.5c0,0,0,0,0,0V6.6c0,0,0,0,0,0h0.6c0.2,0,0.4,0,0.5,0c0.1,0,0.2-0.1,0.3-0.1c0,0,0.1,0,0.1,0.1c0,0,0,0.1,0,0.2
				c0,0.1,0,0.2,0,0.2c0,0.1,0,0.1,0.1,0.1c0.2-0.2,0.3-0.3,0.4-0.3c0.2-0.2,0.4-0.2,0.6-0.2c0.3,0,0.5,0.1,0.6,0.3
				C80.1,6.9,80.1,7,80.1,7z"/>
			<path class="st0" d="M83.9,9.7C83.9,9.7,83.9,9.8,83.9,9.7c-0.2,0.2-0.4,0.4-0.7,0.5c-0.3,0.1-0.6,0.2-1,0.2
				c-0.5,0-0.9-0.1-1.2-0.4c-0.3-0.3-0.5-0.8-0.6-1.3c0-0.3,0-0.6,0.1-0.8c0.1-0.4,0.3-0.7,0.5-1c0.3-0.3,0.6-0.4,1-0.4
				c0.3,0,0.6,0.1,0.9,0.2c0.3,0.1,0.5,0.2,0.7,0.5c0.1,0.1,0.2,0.3,0.3,0.4c0,0,0,0.1,0,0.1c0,0,0,0.1-0.1,0.1c0,0-0.2,0.1-0.5,0.1
				C83,7.9,82.8,8,82.7,8c-0.2,0-0.3,0.1-0.5,0.1c-0.3,0-0.5,0.1-0.6,0.1c0,0-0.1,0-0.2,0c-0.1,0-0.2,0-0.2,0c0,0,0,0.1,0,0.2
				c0,0.5,0.2,1,0.5,1.3c0.1,0.1,0.3,0.2,0.5,0.3c0.2,0.1,0.4,0.1,0.6,0.1c0.3,0,0.6-0.1,0.7-0.2c0.1-0.1,0.2-0.1,0.3-0.2
				c0,0,0,0,0,0C83.8,9.6,83.9,9.6,83.9,9.7C83.9,9.7,83.9,9.7,83.9,9.7z M83,7.6c0,0,0,0,0-0.1c-0.1-0.1-0.1-0.2-0.1-0.2
				c-0.1-0.1-0.2-0.2-0.3-0.3c-0.2-0.1-0.4-0.2-0.6-0.2c-0.2,0-0.3,0.1-0.5,0.3c0,0.1-0.1,0.2-0.1,0.4c0,0.2-0.1,0.3-0.1,0.4
				c0,0.1,0,0.1,0,0.1c0.1,0,0.3,0,0.6,0c0.1,0,0.3,0,0.5-0.1C82.7,7.7,82.8,7.7,83,7.6C82.9,7.7,83,7.6,83,7.6z"/>
			<path class="st0" d="M91,6.8C91,6.8,91,6.9,91,6.8l-0.2,0c-0.1,0-0.2,0.1-0.2,0.2c-0.2,0.5-0.5,1-0.7,1.5
				c-0.3,0.6-0.5,1.2-0.8,1.8c0,0.1-0.1,0.2-0.2,0.2c-0.1,0-0.1-0.1-0.2-0.2c-0.3-0.6-0.4-1-0.6-1.3c-0.2-0.4-0.3-0.8-0.4-1
				c0-0.1-0.1-0.1-0.1,0c-0.2,0.3-0.3,0.8-0.6,1.3c-0.3,0.6-0.4,1-0.5,1.2c0,0.1-0.1,0.1-0.1,0.1c-0.1,0-0.1-0.1-0.2-0.2
				c-0.6-1.2-0.9-1.9-0.9-1.9c0,0-0.1-0.3-0.3-0.7c-0.2-0.4-0.3-0.6-0.3-0.7c-0.1-0.1-0.1-0.2-0.2-0.2h-0.2c0,0,0,0,0,0c0,0,0,0,0,0
				V6.6c0,0,0,0,0.1,0h1.6c0,0,0,0,0,0v0.2c0,0,0,0,0,0h-0.3c0,0-0.1,0-0.1,0.1c0,0.1,0,0.1,0,0.2c0.1,0.3,0.3,0.6,0.4,1
				c0.2,0.6,0.4,1,0.5,1.2c0,0.1,0.1,0.1,0.1,0c0.1-0.3,0.3-0.5,0.4-0.8c0.2-0.4,0.3-0.7,0.4-0.9c0,0,0-0.1,0-0.1
				c-0.1-0.1-0.1-0.2-0.2-0.3c-0.1-0.1-0.2-0.2-0.3-0.2h-0.3c0,0,0,0,0,0V6.7c0,0,0-0.1,0-0.1h1.7c0,0,0,0,0,0v0.2c0,0,0,0,0,0h-0.3
				c-0.1,0-0.1,0-0.1,0.1c0,0,0,0.1,0.1,0.2c0.2,0.5,0.3,0.9,0.5,1.2c0.1,0.3,0.3,0.7,0.4,1c0,0.1,0,0,0.1,0
				c0.3-0.7,0.6-1.3,0.8-1.8C90,7.4,90,7.2,90,7.1c0-0.1-0.1-0.2-0.1-0.2h-0.4c0,0-0.1,0-0.1,0V6.6c0,0,0,0,0,0c0,0,0,0,0,0h1.4
				c0,0,0,0,0,0V6.8z"/>
			<path class="st0" d="M94.8,9.7C94.8,9.7,94.8,9.8,94.8,9.7c-0.2,0.2-0.4,0.4-0.7,0.5c-0.3,0.1-0.6,0.2-1,0.2
				c-0.5,0-0.9-0.1-1.2-0.4c-0.3-0.3-0.5-0.8-0.6-1.3c0-0.3,0-0.6,0.1-0.8c0.1-0.4,0.3-0.7,0.5-1c0.3-0.3,0.6-0.4,1-0.4
				c0.3,0,0.6,0.1,0.9,0.2C94,6.8,94.2,7,94.4,7.2c0.1,0.1,0.2,0.3,0.3,0.4c0,0,0,0.1,0,0.1c0,0,0,0.1-0.1,0.1c0,0-0.2,0.1-0.5,0.1
				C93.8,7.9,93.6,8,93.6,8c-0.2,0-0.3,0.1-0.5,0.1c-0.3,0-0.5,0.1-0.6,0.1c0,0-0.1,0-0.2,0c-0.1,0-0.2,0-0.2,0c0,0,0,0.1,0,0.2
				c0,0.5,0.2,1,0.5,1.3c0.1,0.1,0.3,0.2,0.5,0.3c0.2,0.1,0.4,0.1,0.6,0.1c0.3,0,0.6-0.1,0.7-0.2c0.1-0.1,0.2-0.1,0.3-0.2
				c0,0,0,0,0,0C94.7,9.6,94.7,9.6,94.8,9.7C94.8,9.7,94.8,9.7,94.8,9.7z M93.8,7.6c0,0,0,0,0-0.1c-0.1-0.1-0.1-0.2-0.1-0.2
				c-0.1-0.1-0.2-0.2-0.3-0.3c-0.2-0.1-0.4-0.2-0.6-0.2c-0.2,0-0.3,0.1-0.5,0.3c0,0.1-0.1,0.2-0.1,0.4c0,0.2-0.1,0.3-0.1,0.4
				c0,0.1,0,0.1,0,0.1c0.1,0,0.3,0,0.6,0c0.1,0,0.3,0,0.5-0.1C93.5,7.7,93.7,7.7,93.8,7.6C93.8,7.7,93.8,7.6,93.8,7.6z"/>
			<path class="st0" d="M98.1,7c0,0.2-0.1,0.4-0.2,0.5c0,0,0,0.1-0.1,0.1c0,0-0.1,0-0.1,0c-0.1-0.1-0.2-0.2-0.2-0.3
				c-0.1-0.1-0.3-0.1-0.4-0.1c-0.3,0-0.5,0.1-0.6,0.2c0,0,0,0.1,0,0.1c0,0,0,0.3,0,1c0,0.6,0,0.9,0,1c0,0.5,0,0.7,0.1,0.7l0.7,0
				c0,0,0,0,0,0.1v0.1c0,0,0,0,0,0l-2.2,0c0,0-0.1,0-0.1,0v-0.1c0,0,0-0.1,0-0.1h0.4c0.1,0,0.1,0,0.1-0.1V7.4c0-0.4,0-0.6-0.1-0.6
				h-0.5c0,0,0,0,0,0V6.6c0,0,0,0,0,0h0.6c0.2,0,0.4,0,0.5,0c0.1,0,0.2-0.1,0.3-0.1c0,0,0.1,0,0.1,0.1c0,0,0,0.1,0,0.2
				c0,0.1,0,0.2,0,0.2c0,0.1,0,0.1,0.1,0.1c0.2-0.2,0.3-0.3,0.3-0.3c0.2-0.2,0.4-0.2,0.6-0.2c0.3,0,0.5,0.1,0.6,0.3
				C98.1,6.9,98.1,7,98.1,7z"/>
			<path class="st0" d="M102.4,6.8C102.4,6.8,102.4,6.9,102.4,6.8l-0.2,0.1c0,0-0.1,0-0.1,0.1c-0.1,0.2-0.3,0.7-0.6,1.4
				c-0.1,0.4-0.2,0.7-0.3,0.9c-0.2,0.4-0.4,0.9-0.7,1.5c-0.2,0.5-0.5,1-0.9,1.7c0,0-0.1,0.1-0.1,0.1c-0.2,0-0.3,0-0.6,0
				c-0.1,0-0.2,0-0.4,0.1c0,0-0.1,0-0.1-0.1c0,0,0-0.1,0.1-0.1c0.3-0.1,0.6-0.4,0.9-0.7c0.4-0.5,0.7-0.9,0.8-1.2c0,0,0-0.1,0-0.2
				c-0.2-0.4-0.5-1.1-0.9-2c-0.2-0.5-0.4-0.9-0.5-1.2c-0.1-0.2-0.2-0.3-0.3-0.3h-0.2c0,0-0.1,0-0.1,0V6.6c0,0,0,0,0.1,0h1.8
				c0,0,0,0,0,0v0.2c0,0,0,0,0,0h-0.4c0,0-0.1,0-0.1,0.1c0,0,0,0.1,0,0.1c0.1,0.3,0.2,0.7,0.4,1.2c0.1,0.3,0.3,0.7,0.5,1.3
				c0,0.1,0.1,0.1,0.1,0c0.1-0.3,0.3-0.6,0.4-1.1c0.1-0.4,0.2-0.8,0.3-1.2c0-0.2,0-0.3-0.2-0.3h-0.4c0,0-0.1,0-0.1,0V6.6
				c0,0,0,0,0,0h1.5c0,0,0,0,0,0c0,0,0,0,0,0V6.8z"/>
			<path class="st0" d="M110.2,9.6C110.2,9.7,110.2,9.7,110.2,9.6c-0.3,0.3-0.7,0.5-1.2,0.6c-0.3,0.1-0.8,0.2-1.5,0.2
				c-0.3,0-0.6,0-1-0.1c-0.5-0.1-0.8-0.3-1.1-0.6c-0.5-0.4-0.7-1.1-0.7-2c0-0.5,0.1-1,0.4-1.5c0.2-0.4,0.6-0.8,1-1
				c0.6-0.4,1.3-0.5,2-0.5c0.4,0,0.8,0,1.3,0.1c0.2,0,0.4,0.1,0.6,0.2c0,0,0,0,0,0c0,0.2-0.1,0.5-0.1,0.7c0,0.1,0,0.2-0.1,0.4
				c0,0.1,0,0.1-0.1,0.1c0,0-0.1,0-0.1,0c0,0,0-0.1,0-0.2c0-0.1-0.1-0.2-0.1-0.2c0-0.1-0.1-0.1-0.2-0.2c-0.4-0.4-0.9-0.5-1.4-0.5
				c-0.7,0-1.3,0.2-1.7,0.6c-0.5,0.5-0.7,1.1-0.7,1.9c0,0.9,0.2,1.5,0.7,2c0.4,0.3,0.9,0.5,1.5,0.5c0.3,0,0.7-0.1,1-0.2
				c0.2-0.1,0.4-0.2,0.6-0.4c0,0,0.1-0.1,0.1-0.3c0-0.1,0.1-0.2,0.1-0.3c0,0,0-0.1,0.1-0.1c0,0,0,0,0.1,0c0,0.1,0,0.2,0.1,0.3
				C110,9.2,110.1,9.4,110.2,9.6z"/>
			<path class="st0" d="M114.6,8.4c0,0.4-0.1,0.7-0.2,1c-0.2,0.3-0.4,0.6-0.7,0.8c-0.3,0.2-0.6,0.3-1.1,0.3c-0.4,0-0.7,0-0.9-0.1
				c-0.4-0.2-0.7-0.4-0.8-0.7c-0.2-0.3-0.3-0.7-0.3-1.1c0-0.4,0.1-0.8,0.3-1.1c0.2-0.3,0.4-0.5,0.8-0.7c0.3-0.1,0.6-0.2,1.1-0.2
				c0.4,0,0.7,0.1,0.9,0.2c0.3,0.2,0.5,0.4,0.6,0.7C114.5,7.7,114.6,8.1,114.6,8.4z M113.8,8.6c0-0.5-0.1-1-0.4-1.3
				c-0.3-0.4-0.6-0.5-1-0.5c-0.3,0-0.5,0.1-0.6,0.3c-0.2,0.2-0.2,0.6-0.2,1c0,0.5,0.1,0.9,0.3,1.3c0.1,0.3,0.3,0.4,0.4,0.6
				c0.1,0.1,0.3,0.2,0.5,0.2c0.2,0,0.4,0,0.5-0.1c0.2-0.1,0.3-0.3,0.4-0.5C113.7,9.3,113.8,9,113.8,8.6z"/>
			<path class="st0" d="M116.3,10c0,0.1,0,0.2-0.1,0.3c-0.1,0.1-0.2,0.1-0.3,0.1c-0.3,0-0.5-0.1-0.5-0.4c0-0.3,0.2-0.5,0.6-0.5
				c0.1,0,0.2,0,0.3,0.2C116.2,9.7,116.3,9.8,116.3,10z"/>
			<path class="st0" d="M118.5,10.6c0,0.3-0.2,0.7-0.6,1c0,0-0.1,0.1-0.2,0.1c-0.1,0-0.2,0-0.2-0.1c0,0,0-0.1,0.1-0.2
				c0.2-0.2,0.3-0.4,0.3-0.6c0-0.1,0-0.2-0.1-0.3c0,0-0.1,0-0.2,0c-0.1,0-0.2,0-0.3-0.1c-0.1-0.1-0.1-0.2-0.1-0.3
				c0-0.1,0-0.2,0.1-0.2c0.1-0.1,0.3-0.2,0.5-0.1c0.2,0,0.4,0.1,0.5,0.3C118.5,10.1,118.6,10.3,118.5,10.6z"/>
			<path class="st0" d="M123.7,9.7c0,0-0.1,0.2-0.2,0.3c0,0-0.1,0.1-0.1,0.3c0,0.1-0.1,0.1-0.1,0.1h-4.2c0,0,0,0,0,0v-0.2
				c0,0,0,0,0,0h0.6c0,0,0.1,0,0.1-0.1c0,0,0-0.1,0-0.3c0-0.2,0-0.4,0-0.6c0-0.3,0-0.8,0-1.7c0-0.9,0-1.4,0-1.5
				c0-0.6-0.1-0.9-0.2-0.9h-0.4c0,0-0.1,0-0.1-0.1V4.8c0,0,0-0.1,0.1-0.1h2.4c0,0,0,0,0,0V5c0,0,0,0,0,0h-0.8c0,0-0.1,0-0.1,0.1
				c0,0,0,0.7,0,2c0,1.2,0,1.9,0,2.1c0,0.6,0.1,1,0.2,1c0.7,0,1.2,0,1.5,0c0.4,0,0.8-0.2,1.2-0.4C123.6,9.6,123.6,9.6,123.7,9.7
				C123.7,9.6,123.7,9.7,123.7,9.7z"/>
			<path class="st0" d="M126.7,9.8C126.8,9.9,126.7,9.9,126.7,9.8c-0.2,0.2-0.3,0.3-0.6,0.4c-0.3,0.1-0.6,0.2-0.9,0.2
				c-0.3,0-0.6-0.1-0.7-0.2c-0.2-0.2-0.3-0.4-0.3-0.6c0,0,0-0.3,0-0.9c0-0.6,0-0.9,0-0.9c0-0.4,0-0.6,0-0.6c0,0,0-0.1-0.1-0.1
				c-0.1,0-0.2-0.1-0.3-0.2c0,0-0.1-0.1-0.1-0.1c0,0,0-0.1,0.1-0.1c0.1,0,0.2-0.2,0.5-0.4c0.3-0.2,0.5-0.3,0.5-0.4
				c0,0,0.1-0.1,0.1-0.1c0.1,0,0.1,0,0.1,0.1c0,0.1,0,0.3,0,0.5c0,0.1,0,0.1,0,0.1c0.4,0,0.9,0.1,1.4,0.1c0.1,0,0.1,0,0.1,0.1
				c0,0.1,0,0.2-0.1,0.3c0,0,0,0.1-0.1,0.1c0,0-0.2,0-0.7,0c-0.4,0-0.6,0-0.6,0c0,0,0,0,0,0.1v2.1c0,0.3,0.1,0.6,0.2,0.6
				c0.1,0.1,0.3,0.1,0.6,0.1c0.3,0,0.5,0,0.7-0.1l0.2-0.1C126.7,9.7,126.7,9.8,126.7,9.8z"/>
			<path class="st0" d="M131.8,9.9c0,0.1,0,0.1,0,0.1c-0.3,0.1-0.6,0.2-1,0.3c-0.3,0.1-0.5,0.2-0.6,0.2c0,0-0.1,0-0.1-0.1v-0.3
				c0-0.2,0-0.3,0-0.3c0-0.1-0.1-0.1-0.1,0c-0.2,0.1-0.3,0.3-0.6,0.4c-0.2,0.1-0.5,0.2-0.9,0.2c-0.2,0-0.4-0.1-0.7-0.2
				c-0.2-0.1-0.4-0.3-0.5-0.6c-0.2-0.3-0.3-0.7-0.3-1.1c0-0.7,0.2-1.2,0.6-1.5c0.3-0.3,0.7-0.4,1.3-0.4c0.3,0,0.6,0.1,1,0.3
				c0,0,0.1,0,0.1-0.1c0,0,0-0.3,0-0.7c0-0.5,0-0.7,0-0.8c0-0.5-0.1-0.7-0.2-0.7h-0.5c0,0,0,0,0-0.1V4.3c0,0,0-0.1,0-0.1h0.2
				c0.4,0,0.7,0,1-0.1c0.2-0.1,0.4-0.1,0.4-0.1c0,0,0.1,0,0.1,0.1c0,0,0,0.2,0,0.5c0,0.4,0,0.6,0,0.6v3.9c0,0.5,0.1,0.8,0.2,0.7
				c0.1,0,0.2-0.1,0.4-0.1c0.1,0,0.2-0.1,0.2-0.1C131.7,9.7,131.8,9.8,131.8,9.9z M130.1,9.4c0,0,0-0.2,0-0.5c0-0.3,0-0.6,0-0.8
				c0-0.4,0-0.7,0-0.8c0-0.1,0-0.1-0.1-0.2c-0.3-0.2-0.6-0.2-0.9-0.2c-0.1,0-0.3,0-0.5,0.1c-0.2,0.1-0.3,0.2-0.3,0.3
				c-0.2,0.3-0.3,0.7-0.3,1.2c0,0.4,0.1,0.8,0.3,1.1c0.2,0.3,0.5,0.4,0.8,0.4c0.4,0,0.7-0.1,1-0.3C130.1,9.6,130.1,9.5,130.1,9.4z"
				/>
			<path class="st0" d="M133.3,10c0,0.1,0,0.2-0.1,0.3c-0.1,0.1-0.2,0.1-0.3,0.1c-0.3,0-0.5-0.1-0.5-0.4c0-0.3,0.2-0.5,0.6-0.5
				c0.1,0,0.2,0,0.3,0.2C133.3,9.7,133.3,9.8,133.3,10z"/>
		</g>
		<path class="st0" d="M14.1,11l-2-1.6l1.3-1l0.7,0.6l0,0l0,0l1.8-1.4l0,0l0,0l-1.8-1.5l0,0l0,0l-0.7,0.6l-1.3-1l2-1.6l4.5,3.6
			L14.1,11 M9.3,14.8l4.5-3.6l-2-1.6l-1.3,1l0.7,0.6l0,0l0,0l-1.8,1.5l0,0l0,0l-1.8-1.5l0,0l0,0l0.7-0.6l-1.3-1l-2,1.6L9.3,14.8z
			 M4.5,11l2-1.6l-1.3-1L4.5,8.9l0,0l0,0L2.6,7.5l0,0l0,0l1.8-1.5l0,0l0,0l0.7,0.6l1.3-1l-2-1.6L0,7.4L4.5,11z M11.7,5.2l2-1.6
			L9.3,0L4.8,3.6l2,1.6l1.3-1L7.4,3.6l0,0l0,0l1.8-1.5l0,0l0,0l1.8,1.5l0,0l0,0l-0.7,0.6L11.7,5.2z M9.3,11l4.5-3.6L9.3,3.8L4.8,7.4
			L9.3,11z M9.3,5.9L9.3,5.9l1.8,1.5l0,0l0,0L9.3,8.9l0,0l0,0L7.4,7.5l0,0l0,0L9.3,5.9L9.3,5.9z"/>
	</g>
	<g>
		<path class="st0" d="M51,56.5c0-0.1,0.1-0.1,0.1,0l0.1,0c0.1,0,0.1,0,0.1,0.1c-0.4,1.7,0.6,2.4,1.3,2.4c0.7,0,1.3-0.6,1.3-1.3
			c0-0.7-0.5-1.2-1-1.7c-0.7-0.8-1.2-1.3-1.2-2.4c0-0.8,0.6-2,1.9-2c0.6,0,1.1,0.4,1.3,0.5c0.1,0,0.1,0.1,0.2,0.1
			c0.1,0,0.1-0.2,0.2-0.4c0,0,0,0,0.1,0l0.1,0c0.1,0,0.1,0,0.1,0.1L55.1,54c0,0,0,0.1-0.1,0.1l-0.2,0c-0.1,0-0.1,0-0.1-0.1
			c0.1-0.4-0.1-1.9-1.2-1.9c-0.7,0-1.1,0.6-1.1,1.2c0,0.8,0.5,1.2,1,1.7c0.5,0.5,1.2,1.1,1.2,2.3c0,1.5-1,2.1-2,2.1
			c-0.7,0-1.2-0.4-1.6-0.8c-0.1-0.1-0.2-0.1-0.3,0c-0.1,0.1-0.2,0.3-0.2,0.4c0,0,0,0.1-0.1,0L50.2,59c-0.1,0-0.1,0,0-0.1L51,56.5z"
			/>
		<path class="st0" d="M56,59.1c0-0.3,0.2-0.8,0.7-2l0.3-0.9c0.1-0.3,0.2-0.5,0.2-0.7c0-0.1-0.1-0.1-0.2-0.1c-0.2,0-0.7,0.6-0.9,0.8
			c0,0-0.1,0-0.1,0l-0.1-0.1c0,0-0.1-0.1,0-0.1c0-0.1,1.2-1.4,1.9-1.4c0.1,0,0.3,0.1,0.3,0.3c0,0.2-0.2,0.7-0.4,1.2L57,57.9
			c-0.2,0.4-0.2,0.7-0.2,0.7c0,0.1,0,0.2,0.1,0.2c0.2,0,0.8-0.7,0.9-0.8c0,0,0.1,0,0.1,0l0.1,0.1c0,0.1,0.1,0.1,0,0.1
			c-0.1,0.1-1,1.2-1.9,1.2C56.1,59.4,56,59.3,56,59.1z M57.4,52.7c0-0.3,0.2-0.6,0.6-0.6c0.4,0,0.6,0.3,0.6,0.5
			c0,0.2-0.1,0.6-0.6,0.6C57.5,53.2,57.4,52.8,57.4,52.7z"/>
		<path class="st0" d="M59.1,59.3c-0.1,0-0.1,0-0.1-0.1l0.8-2.1c0.3-0.7,0.6-1.5,0.6-1.7c0-0.1,0-0.2-0.2-0.2
			c-0.2,0-0.7,0.5-0.9,0.7c0,0-0.1,0-0.1,0l-0.1-0.1c0,0-0.1-0.1,0-0.1c0.2-0.2,1-1.1,1.8-1.1c0.3,0,0.4,0.2,0.4,0.3
			c0,0.3-0.5,1.4-0.6,1.7l0,0c0.3-0.5,1.5-2,2.5-2c0.3,0,0.6,0.2,0.6,0.5c0,0.5-0.3,1.1-0.6,2c-0.3,0.7-0.6,1.4-0.6,1.5
			c0,0.1,0,0.1,0.1,0.1c0.2,0,0.7-0.4,0.8-0.6c0,0,0.1,0,0.1,0l0.1,0.1c0,0,0.1,0.1,0,0.1c-0.1,0.2-1,1-1.8,1
			c-0.1,0-0.3-0.1-0.3-0.2c0-0.2,0.4-1.1,0.7-2c0.2-0.4,0.6-1.4,0.6-1.6c0-0.2-0.1-0.3-0.3-0.3c-0.4,0-1.5,1-2,1.8
			c-0.2,0.3-0.4,0.6-0.7,1.4l-0.3,0.7c0,0,0,0.1-0.2,0.1H59.1z"/>
		<path class="st0" d="M64.6,58.4c0-1.5,1.2-3.7,2.5-3.7c0.5,0,0.6,0.4,0.6,0.6c0,0.3-0.3,0.5-0.5,0.5c-0.1,0-0.2-0.1-0.3-0.2
			c0-0.1-0.2-0.3-0.3-0.3c-0.3,0-0.6,0.3-0.8,0.8c-0.3,0.6-0.5,1.6-0.5,1.9c0,0.8,0.2,0.9,0.4,0.9c0.4,0,0.9-0.4,1-0.6
			c0,0,0.1-0.1,0.1,0l0.1,0.1c0,0,0.1,0.1,0,0.1c-0.2,0.2-0.9,1-1.6,1C65,59.4,64.6,59.1,64.6,58.4z"/>
		<path class="st0" d="M67.9,58.3c0-0.9,0.6-2.1,1.4-2.9c0.4-0.4,1-0.7,1.5-0.7c0.4,0,0.6,0.3,0.6,0.6c0,0.5-0.4,1.1-1,1.4
			c-0.6,0.3-1.2,0.4-1.6,0.5c-0.1,0.1-0.1,0.5-0.1,1c0,0.5,0.4,0.7,0.6,0.7c0.5,0,1-0.4,1.3-0.8c0,0,0.1-0.1,0.1,0l0.1,0.1
			c0.1,0,0.1,0.1,0,0.1c-0.3,0.4-0.9,1.1-1.8,1.1C68.2,59.4,67.9,59,67.9,58.3z M68.9,56.8c0.4,0,1.8-0.4,1.8-1.3
			c0-0.2-0.1-0.4-0.4-0.4C69.7,55.2,69,56.4,68.9,56.8z"/>
		<path class="st0" d="M74.4,59c0-0.1,0.1-0.1,0.1-0.1h0.6c0.4,0,0.6,0,0.9-0.6c0.1-0.1,0.3-0.8,0.5-1.6l0.6-2.1
			c0.2-0.7,0.3-1,0.3-1.1c0-0.1,0-0.2-0.2-0.2c-0.1,0-0.3,0.1-0.7,0.2L76,53.9c-0.1,0-0.1,0-0.2,0l-0.1-0.2c0-0.1,0-0.1,0.1-0.1
			l2.5-1.3c0.2-0.1,0.2-0.1,0.3-0.1c0.1,0,0.1,0,0.1,0.1c0,0,0,0.1-0.1,0.3c0,0.1-0.5,1.5-0.9,2.6l-0.6,1.9
			c-0.2,0.5-0.4,1.1-0.4,1.3c-0.1,0.4-0.1,0.5,0.5,0.5h0.6c0.1,0,0.1,0,0.1,0.1l0,0.2c0,0.1,0,0.1-0.1,0.1c-0.1,0-1.7,0-1.8,0
			c-0.2,0-1.6,0-1.6,0c0,0-0.1,0-0.1-0.1L74.4,59z"/>
		<path class="st0" d="M85,54c0,2.5-2.4,4.8-4.4,5.4c-0.1,0-0.2,0.1-0.2,0.1c-0.1,0-0.2-0.1-0.2-0.1c0-0.1,0-0.1,0.1-0.1
			c1.8-0.8,2.5-1.8,3.1-2.9l0,0c-0.3,0.3-0.6,0.4-1.2,0.4c-1.3,0-1.5-1.2-1.5-1.7c0-1.3,1-2.9,2.6-2.9C84.4,52.1,85,52.9,85,54z
			 M81.5,55.1c0,0.5,0.2,1.1,0.9,1.1c0.4,0,0.9-0.2,1.2-0.6c0.4-0.6,0.6-1.4,0.6-2c0-0.5-0.1-1.2-1-1.2
			C82.1,52.5,81.5,54.3,81.5,55.1z"/>
		<path class="st0" d="M85.5,59c0-0.1,0.1-0.1,0.1-0.1h0.6c0.4,0,0.6,0,0.9-0.6c0.1-0.1,0.3-0.8,0.5-1.6l0.6-2.1
			c0.2-0.7,0.3-1,0.3-1.1c0-0.1,0-0.2-0.2-0.2c-0.1,0-0.3,0.1-0.7,0.2l-0.6,0.3c-0.1,0-0.1,0-0.2,0l-0.1-0.2c0-0.1,0-0.1,0.1-0.1
			l2.5-1.3c0.2-0.1,0.2-0.1,0.3-0.1c0.1,0,0.1,0,0.1,0.1c0,0,0,0.1-0.1,0.3c0,0.1-0.5,1.5-0.9,2.6l-0.6,1.9
			c-0.2,0.5-0.4,1.1-0.4,1.3c-0.1,0.4-0.1,0.5,0.5,0.5H89c0.1,0,0.1,0,0.1,0.1l0,0.2c0,0.1,0,0.1-0.1,0.1c-0.1,0-1.7,0-1.8,0
			c-0.2,0-1.6,0-1.6,0c0,0-0.1,0-0.1-0.1L85.5,59z"/>
		<path class="st0" d="M91.2,58c0-1.2,1.3-1.8,2-2.2c-0.3-0.4-0.9-1-0.9-1.7c0-0.9,0.9-2,2.4-2c1,0,1.6,0.6,1.6,1.3
			c0,1.2-1.4,2-2,2.3c0.4,0.4,0.8,1,0.8,1.6c0,1.1-0.9,2.1-2.3,2.1C91.4,59.5,91.2,58.4,91.2,58z M94.3,57.8c0-0.8-0.5-1.3-0.8-1.7
			c-0.6,0.3-1.5,0.7-1.5,2c0,0.7,0.6,1.1,1,1.1C93.9,59.2,94.3,58.2,94.3,57.8z M95.6,53.6c0-0.4-0.3-1.1-1.1-1.1
			c-0.7,0-1.4,0.4-1.4,1.3c0,0.6,0.4,1.1,0.9,1.7C94.9,55,95.6,54.5,95.6,53.6z"/>
	</g>
</g>
</svg>
