<?xml version="1.0" encoding="utf-8"?>
<!-- Generator: Adobe Illustrator 22.1.0, SVG Export Plug-In . SVG Version: 6.00 Build 0)  -->
<svg version="1.1" id="レイヤー_1" xmlns="http://www.w3.org/2000/svg" xmlns:xlink="http://www.w3.org/1999/xlink" x="0px"
	 y="0px" viewBox="0 0 320 320" style="enable-background:new 0 0 320 320;" xml:space="preserve">
<style type="text/css">
	.st0{fill:#A4811B;}
	.st1{fill:#FFFFFF;}
</style>
<rect class="st0" width="320" height="320"/>
<g>
	<path class="st1" d="M176.5,115.1c-0.5,0.7-1.1,0.9-1.7,1.5c-0.6,0.6-1.3,1.4-1.7,2.2c-0.6,1.2-2.2,4.1-2.5,1.2
		c-0.2-2.1-0.6-3.6-1.4-5.6c-0.4-0.8-0.8-1.6-0.7-2.6c0-0.9,0.5-1.8,0.6-2.6c0.4-3.1,0.6-5.6,3.1-7.8c0.4-0.3,0.6-0.6,0.9-1
		c0.6-0.5,1.7-0.8,2.3-0.6c2.2,0.8-0.6,4.1,0.3,5.5c0.5,0.7,1.3,1.1,1.7,1.9c0.3,0.7,0.1,1.7,0.1,2.5
		C177.4,111.6,177.4,113.6,176.5,115.1 M174.5,138.8c-0.1-1.1-0.4-2.1-0.3-3.3c0.2-2.2,0.1-5.4,1.7-7.1c0.6-0.6,1.4-1.1,1.1-2
		c-0.2-0.7-0.9-1.2-1.6-0.6c-0.7,0.6-0.7,2.4-1.3,3.2c-0.2,0.3-0.6,1-1.1,0.9c-0.7-0.2-0.4-1.1-0.4-1.6c0-1.7-0.8-2.7-2-3.7
		c-0.6-0.6-1.6-1.9-2.4-1.4c-0.6,0.4-0.7,1.5-1,2c-0.4,0.8-0.6,1.8-0.5,2.7c0.3,1.9-0.3,2.5-0.8,4.2c-0.7,2.1-0.7,4.5-0.8,6.8
		c0,1.2-0.7,2.2-0.7,3.4c0,1.6,0.8,2.7,1.6,4.1c0.5,0.7,0.8,1.5,1.6,2c0.6,0.5,1.5,0.6,2,1.1c0.6,0.5,0.3,1.5,0.7,1.8
		c0.6,0.4,1.2-0.8,1.3-1.3c0.4-0.8,0.6-1.8,1.3-2.4c0.6-0.6,1.1-0.8,1.2-1.8C174.6,143.4,174.8,141.3,174.5,138.8 M206.4,120.9
		c-0.4-0.3-1.6-0.6-1.6-1.2c0-0.7,1.1-2,1.7-2.4c0.8-0.6,2-0.8,3.1-0.9c0.6-0.1,1.4-0.2,2-0.2s1.2,0.3,1.8,0.3
		c1.6,0,2.1-1.6,2.1-2.9c0-0.9-0.9-1-1.5-1.6c-0.6-0.6-0.9-1.2-1.4-1.9c-0.6-0.9-1.3-2.1-2.5-2.1c-0.5,0-2,0.6-2.3,0
		c-0.2-0.5,1-0.9,1.4-1.2c1.6-0.9,1.3-1.7,0.6-3.1c-0.3-0.6-0.5-1.3-0.7-1.8c-0.6-0.8-1.2-1.9-2.3-2.1c-1-0.2-2.1,0.4-3,0.8
		c-1.8,1-1.7-0.8-1.3-2c0.2-0.6,0.6-1.1,0.6-1.9c-0.1-0.6-0.3-1.3-0.5-1.9c-0.4-1.5-1.4-2-2.8-2.4c-1.2-0.4-2.3,1.1-3.7,0.6
		c-0.3,1.2-0.2,2.5-0.3,3.8c0,0.9-0.3,1.8-0.3,2.7c0,0.6-0.1,1.5-0.3,2.1c-0.5,1.8-1,2.2-2.9,2.3c-0.2,0.6-0.8,0.4-1.3,0.5
		c-0.4,0.1-1.4,0.5-1.6,0.6c-1.3,0.6-3.2,1-4,2.4c-0.6,1,0.1,0.8,0.4,1.6c0.1,0.3-0.1,0.9,0,1.2c0.1,1.4,0.7,2.8,2.4,2.4
		c1.4-0.3,2.3-1.9,2.9-3.1c0.5-0.9,0.6-0.6,1.5-0.9c0.6-0.2,1-0.8,1.8-0.8c1.5,0,0.6,2.7,0.1,3.3c-0.9,0.3-1.8,1.1-2.7,1.6
		s-1.9,0.6-2.9,1c-0.7,0.3-1.4,0.7-2.1,0.9c-0.6,0.2-1.1,0.3-1.6,0.6c-0.6,0.4-1.2,0.8-1.9,1.2c-0.6,0.4-1.2,0.4-1.9,0.6
		c-0.7,0.2-1.4,0.7-1.9,1.3c-1.1,1.1-1.8,2.9-1.7,4.4c0,1.1,0.4,1.9,1.3,2.4c0.9,0.5,1.5,0.5,2.4,0.1c0.6-0.2,1.4-0.8,1.9-0.8
		c0.7-0.1,1.5,0.4,2.2,0.4c0.4,0,0.7,0.1,1,0.1c0.6,0,0.6-0.3,0.9-0.5c0.3-0.1,0.6-0.1,0.8-0.3c0.4-0.2,0.4-0.6,0.7-0.6
		c0.7-0.3,1.2,0,1.9-0.6c0.6-0.6,1-1.1,1.8-1.6c0.3-0.2,0.5-0.5,0.8-0.4c-0.1,0.6-0.7,1.3-1,1.9c-0.3,0.4-0.6,0.8-1,1.1
		c-0.6,0.4-1.3,0.3-1.9,0.6c-0.2,0.1-0.4,0.4-0.6,0.5c-0.3,0.2-0.6,0.2-1,0.4c-1.3,0.6-2.3,1.7-3.4,2.6c-0.6,0.6-1,0.7-0.9,1.6
		c0.2,1.4,0.8,2.9,2.2,3.5c0.6,0.3,1.2,0.1,1.5-0.5c0.2-0.3,0.2-0.6,0.4-0.8c0.2-0.3,0.4-0.5,0.6-0.6c0.3-0.2,0.6-0.4,0.7-0.6
		s0.3-0.5,0.6-0.6c0.4-0.3,0.7-0.1,1-0.2c0.3-0.1,0.6-0.5,0.9-0.6c0.6-0.3,1-0.6,1.7-0.6c1.2,0,0.6,0.7,0.1,1.3
		c-0.6,0.6-1.2,1.4-1.8,1.9c-0.8,0.8-1.9,0.9-3,1.4c-0.8,0.4-1.7,1-2.2,1.8c-0.6,0.7-0.9,2-0.4,2.8c0.5,0.6,1.1,1.1,1.8,1.5
		c0.6,0.3,1.2,0.9,1.9,1c0.5,0.1,0.8-0.1,1.2-0.3c0.9-0.5,1.8-1.2,2.8-0.9c1.2,0.3,1.1,0.9,1,2c-0.2,1.7-0.2,3.2-0.4,4.9
		c-0.1,0.6-0.3,1.2-0.1,1.9c0.3,1.1,0.9,2.1,1,3.1c0.1,1.2-0.3,2.4-0.3,3.7c0,0.8,0.3,2.7-0.4,3.2c-0.4,0.3-0.9,0.3-1.4,0.4
		c-0.8,0.2-0.6,0.2-0.6,0.9c0.1,0.8-0.1,0.8,0.6,1.4c1,0.7,1.4,2.5,2.2,3.5c0.7,0.9,1,0.8,2.2,0.7c0.6-0.1,0.6,0.1,1.1-0.5
		c0.4-0.5,0.5-0.7,0.6-1.3c0.2-0.5,0.4-0.7,0.6-1.1c1.1-2.1,0.7-4.1,0.7-6.4c0-2.1,0.5-4.2,0.5-6.2c0-0.7,0-1.5-0.2-2.1
		c-0.4-0.9-0.6-0.8-0.1-1.7c0.4-0.6,0.4-1.1,0.1-1.8c-0.3-0.6-0.7-0.9-1-1.4c-0.6-1,0.6-1.6,0.9-2.5c0.2-0.6,0.6-2.6,0.2-3.1
		c1-0.8,2.5-1,3.6-1.3c1.4-0.4,3.4-0.6,4.4-1.6c0.9-0.9,1-2.7,0.2-3.7c-0.6-0.7-1.6-1.1-2.2-1.8c-0.7-0.6-1.4-1.3-1.7,0
		c-0.1,0.6,0.1,1.2-0.5,1.7c-0.3,0.3-0.7,0.1-1,0.3c-0.3,0.1-0.6,0.5-0.8,0.5c-1.3,0.4-1.8-1.9-1-2.7c0.9-0.8,2.9-1.3,4-1.2
		c0.8,0,1.1,0.1,1.7-0.6C209.3,124.7,207.9,122.3,206.4,120.9 M202.1,116.4c0.6-0.2,1.2-0.3,1.8-0.5c0.5-0.2,0.9-0.5,1.5-0.6
		c0,0.5-0.5,1.1-0.6,1.6c-0.3,0.6-0.6,0.9-0.8,1.6c-0.5,1.5-1.6,0.6-2.5,1.7c-0.1,0.1-0.6-1.2-0.6-1.4c0-0.4,0.2-1.3,0.4-1.6
		C201.5,116.6,201.6,116.6,202.1,116.4 M187.7,121.7c-1.2,0.3-1.8,0.1-0.6-0.8c0.8-0.6,2.3-1.5,3.3-1.3
		C190.5,120.9,188.7,121.5,187.7,121.7"/>
	<path class="st1" d="M161.5,52.9c0.3-1.2,1-2.5,2.3-2.3c0.2-0.7,0.5-1.2,1-1.8c0.6-0.6,1.1-1.2,1.8-1.9c0.6-0.6,1.6-1.2,1.9-2
		c0.2-0.3,0.1-0.7,0.4-1c0.1-0.2,0.7-0.4,0.9-0.6c0.4-0.3,0.7-0.5,0.9-0.8s-0.2-0.8,0.2-1.2s1.2-0.4,1.4-0.8c0.3-0.6-0.5-1.4,0-2
		c0.2-0.3,0.7-0.6,1-0.7c0.5-0.4,0.7-0.8,1.2-1.2c0.4-0.3,1.2-1,1.7-1c1.6,0.1-0.2,2.1-0.1,2.8c0.5,0,0.6-0.6,0.7-0.9s0.5-0.6,0.8-1
		c0.8-0.7,1.2-1.1,2.3-1.1c0.4-0.7,1.1-0.7,1.1-1.7c0-0.3-0.4-0.8,0.1-1.1c0.3-0.2,0.6,0,0.9-0.2c0.3-0.1,0.6-0.5,0.7-0.6
		c0.6-0.6,1.3-1.2,1.9-1.8c0.9-0.7,1.7-1.1,2.7-1.7l0.1,0.1c0.2-1,2.2,0.2,2.8,0.5c0.4,0.2,1,0.4,1.3,0.6c0.5,0.5,0.3,1.3,0.7,1.9
		c0.6,0.6,1.5,0.9,1.3,2c-0.2,1-0.7,1.8-1.5,2.5c-0.6,0.6-1.1,1-1.5,1.9c-0.2,0.5-0.1,0.5-0.5,0.7c-0.6,0.6-1.2,1.1-1.8,1.8
		c-0.5,0.6-0.9,0.7-1.5,1.1c-0.6,0.4-0.8,0.9-1.3,1.5s-1.2,0.9-1.7,1.4c-0.3,0.3-0.4,0.6-0.6,1c-0.2,0.3-0.5,0.3-0.7,0.5
		c-0.5,0.4-0.9,0.9-1,1.5c-0.2,0.6,0,1,0.6,1.3c1.2,0.6,4.1-0.6,5.2-1.1c1.1-0.5,2.5-0.9,3.5-1.6c1.5-1,2.3-3.4,4.2-3.6
		c0.7-0.1,1.4,0.3,2,0.2c0.7-0.2,0.7-0.9,1.3-1.2c0.6-0.3,1,0.5,1.2,1s0.2,1.4,0,1.9c-0.5,1.2-1.9,2.3-3,3.1
		c-0.6,0.5-1.1,0.8-1.8,1.2c-0.6,0.4-3.1,1.5-3,2.1c0.2,0.7,3-0.3,3.6-0.5c1.5-0.4,3-0.5,4.4-0.5c1.9,0,3.6,0.2,5.2,1.2
		c0.7,0.5,1.4,0.9,1.9,1.6c0.5,0.6,1,2.1,0.4,2.8c0.6,1.4-0.6,2.4-1.4,3.5c-0.7,1-1.4,2.1-2.1,3.1c-0.6,0.7-0.5,1.1-1.6,1.1
		c-0.7,0-1.4-0.2-2.2-0.4c-0.7-0.2-1.2-0.6-1.7-1c-0.6-0.6-0.6-1.7-1.4-1.5c-0.5,0.2-1.4,1-1.4,1.5c0,0.5,0.6,1,0.8,1.5
		c1.2,0.4,1.3,2.6,1,3.5c-0.5,1.6-2.8,2.3-1.9,4.3c0.5,1,2.5,1.7,3.4,2c1.3,0.6,2.4,1.1,3,2.5c0.3,0.6,0.7,1,1,1.6
		c0.2,0.5,0.2,1.2,0.2,1.8c0,0.6,0.1,1.4,0,2c-0.1,0.7-0.5,1.5-0.5,2.3c0,0.7,0.2,1.4-0.1,2.2c-0.3,0.6-0.7,1.5-1.3,1.9
		c-0.6,0.4-1.1,0.5-1.7,0.9c-0.6,0.5-1.2,0.9-1.7,1.5c-0.6,0.7-0.6,1.2-1.8,1c-0.7-0.1-1.2-0.6-1.9-0.6c-1.5-0.3-2.4-1.4-3.7-1.9
		c-0.7-0.3-1.1-0.2-1.6-0.8c-1-1.4-1.3-3.3-0.8-5c0.4-1.4,1.5-2.8,2.9-3c0.6-0.1,1.5,0.1,2.1,0.2c0.9,0.1,1,0.3,1.8,0.7
		c1.4,0.8,1.1-1.9,0.3-2.6c-1-0.8-2.6-0.5-3.8-0.2c-1.5,0.4-2.2,1.7-2.9,3c-0.4,0.6-0.8,1.2-1.2,1.9c-0.4,0.7-0.6,1.3-1.5,1.5
		c-1.1,0.3-2.9-0.2-3.2-1.4c-0.2-0.6-0.3-1.4-0.3-2.1c-0.1-0.8-0.6-1.7-0.4-2.6c0.1-0.6,0.3-1.4,0.5-1.9c0.2-0.7,0.6-1.3,0.9-2
		c0.3-0.6,0.6-1.3,0.3-1.9c-0.3-0.5-0.9-0.7-1.2-1.3c-0.6-1.2,0.9-2.9,1.8-3.7c0.6-0.6,1.2-1,1.8-1.6c0.5-0.6,1.3-1,1.7-1.7
		c0.3-0.5,0.2-1.4,0.2-1.9c-0.1-0.6,0-1.3-0.1-1.9c0-0.4-0.2-0.6-0.2-1.1c0-0.4,0.3-0.6,0.1-0.8c-0.4-0.5-1.2-0.2-1.7,0
		c-0.6,0.2-0.9,0.6-1.5,0.8c-0.4,0.2-0.6-0.3-0.6,0.3c-0.1,0.5,0.1,0.5,0.4,0.6c0.9,0.6,3.1-0.1,2.8,1.6c-0.4,1.4-1.6,1.9-2.8,2.4
		c-2,0.8-4.2-0.5-4-2.8c0.1-0.8,0.7-1.8,1.1-2.4c0.2-0.4,0.6-0.6,0.6-1c0.1-0.5-0.3-0.7-0.3-1.1c0.1-0.9,1.2-1.1,1.8-1.5
		c0.6-0.4,1.1-0.8,1.8-1.2c0.7-0.4,2.6-0.7,2.3-1.9c-0.7-0.6-2.9-0.2-3.8-0.3c-0.8-0.1-1.8-0.2-2.4-0.7c-0.6-0.6-0.7-1.2-1.8-1
		c-1,0.2-1.5,0.9-2,1.7c-0.6,0.9-1.4,1.1-2.2,1.7c-0.4,0.2-0.8,0.8-1,1.2c-0.5,0.8-0.6,1.9-1.5,2.5c-0.5,0.3-0.7,0.1-1.1,0.6
		c-0.3,0.4-0.5,1-0.6,1.5c-0.1,0.5-0.1,1-0.5,1.4c-0.3,0.3-0.6,0.4-0.7,0.7c-0.7,0-1.1,0.3-1.9,0.4c-0.7,0.2-0.7-0.1-1.3-0.3
		c-0.5-0.2-1.3-0.2-1.9-0.1c-0.6,0.1-1,0.6-1.6,0.8c-1.8,0.6,0.6-2.2,0.3-2.7c-0.3-0.5-1.4-0.1-1.8-0.5c-0.4-0.3-0.6-1-0.8-1.5
		C160.8,55.6,161.2,54.1,161.5,52.9 M175.6,68.1c0.6,0,1.8,0,2.2-0.6c0.5-0.5,0.1-1.4,0.3-1.9c0.3-1.4,0.7-2.9,1.2-4.3
		c0.2-0.6,0.2-1.3,0.3-2c0-0.7,0.4-1.4,0.3-2.1c-0.1-1-0.4-1.4,0-2.4c0.2-0.5,0.4-0.8,0.4-1.2c0-0.3,0-0.6-0.2-0.9
		c-0.2-0.6,0-1-0.8-0.7c-0.7,0.2-1.1,1.6-1.6,2.1c-0.3,0.3-0.6,0.3-0.9,0.6c-0.7,0.6-0.4,1.3-0.7,2.1c-0.4,0.9-1.1,1.1-1.8,1.7
		c-0.9,0.8-0.5,1.4-0.3,2.4c0.2,2-2.2,2.2-1.5,4.3c0.3,0.7,0.7,1.7,1.1,2.3C174.1,68.3,174.4,68.1,175.6,68.1 M201.5,35.1
		c-0.7,0-7.1,0.4-6,2.2c0.9,1.5,3.2,0.8,4.6,1.2c1.8,0.5,2.7,1.7,4,2.8c0.6,0.5,1.2,0.9,0.6,1.5c-0.4,0.4-1.6,0.4-1.8,1
		c-0.1,0.7,1,0.7,1.5,0.7c0.6,0.1,1.2,0,1.8,0.3c0.5,0.3,0.7,1,1.4,1c0.2,0,0.6-0.3,0.9-0.3c0.4,0,0.6,0.1,1,0.1
		c1.2,0.3,3.4,0.5,4.6-0.2c1.3-0.7,1.9-2,0.6-3.2c-0.6-0.6-1.4-0.4-1.5-1.4c-0.1-0.8,0.3-1.2-0.5-1.8c-0.7-0.6-1.4-1-2-1.6
		c-0.8-0.6-1.9-0.9-3-1.2c-1.2-0.4-2.5-0.7-3.7-1C203.4,35.2,202.5,35,201.5,35.1 M193.2,83.9c-0.3,0-0.5,0.1-0.6,0.2
		c-0.4,0.5,0.5,1.5,1.2,1.5c0.6,0,1-0.4,0.7-0.9C194.4,84.3,193.4,83.9,193.2,83.9 M192.5,57.8c0.9,0,2.5-2.4,2.2-3.2
		c-0.4-0.9-1.5,0-1.9,0.5C192.6,55.2,191.7,57.8,192.5,57.8 M200.3,56.9c0.8-0.2,2.6-1.3,3.1-2c0.7-1.2-1.4-1.7-2.2-1.6
		c-1.1,0.1-2.3,0.1-3.4,0.2c-1.6,0.2-0.5,1.2,0.2,1.9C198.3,55.9,199.3,57,200.3,56.9"/>
	<path class="st1" d="M153.7,229.2c-0.2-0.1-0.4-0.4-0.6-0.6c-0.4-0.5-0.8-0.7-1.4-1.1c-1.2-0.7-2.4-1.8-3.7-2.3s-2.7-0.8-3.8-1.6
		c-0.1,0.8-0.7,1-0.9,1.7c-0.2,0.6,0.2,1.7,0.1,2.5c-0.1,0.7-0.4,1.5-0.5,2.2c-0.3,1.7-0.6,3.1-1.2,4.5c-0.5,1.1-0.3,1.6-1.3,2.3
		c-0.9,0.6-1.6,0.8-2.6,1.1c-1.6,0.5-3.4,0.3-5-0.4c-0.6-0.3-1.3-0.7-1.9-1.1c-0.5-0.4-1.4-1.3-1.4-1.9c-0.4-0.1-0.6-0.5-1-0.6
		c-0.3-0.1-0.6,0.1-0.8-0.1c-0.2-0.1-0.2-0.5-0.4-0.5c-0.6-0.3-1.9-0.2-2.2-0.6c0.2-0.2,0.4-0.5,0.6-0.6c-2.5-0.5-4.6-1.2-7.2-1.3
		c-0.5,0-1.7-0.2-1.9,0.2c0.3,0.1,0.5,0.4,0.6,0.5c-0.7-0.1-1.2,0.6-1.9,0.9c-0.6,0.3-1.3,0.6-1.9,0.7c-1.2,0.3-0.8,0.3-1.5,1.1
		c-0.4,0.5-1.4,0.8-2,0.8c0,0.4-0.2,0.6-0.5,0.6c0-0.2-0.1-0.5-0.1-0.6c-0.1,0-0.4,0.1-0.5,0.1c0.1,1.2-4,1.5-4.8,2
		c-0.1-0.2-0.4-0.4-0.5-0.5c-0.1,0.2-0.4,0.4-0.5,0.5c-0.7-1.1-0.9-0.3-1.6,0c0-0.1,0-0.2,0-0.3c-0.8,0-1.2-1.9-1.5-2.5
		c-0.6-1.9,0.2-3.8,0.9-5.5c0.7-1.9,1.2-3.9,2.7-5.4c2-2.1,4.3-4,6.8-5.4c0.5-0.3,1.2-0.2,1.8-0.4c1-0.4,1.8-1,2.7-1.6
		c1-0.7,2.5-0.8,3.7-1.1c0.9-0.2,1.9-0.6,2.8-0.5c0,0.2,0,0.3,0,0.5c-1.3,0.2-2.5,0.5-3.2,1.5c1-0.2,1.9-0.6,3-0.8
		c0.5-0.9,3.8-1.5,4.7-1.6c0.6-0.1,1.1,0.1,1.8,0.1c1.6,0,2.1-0.6,2.1-2.1c-0.1-1.9,0.1-4,0.1-6c0-1.3-0.1-2.5-0.2-3.8
		c-0.1-1.3,0.5-2.5,0.2-3.7c-0.5-1.7-1.7-2.1-3.1-2.4c-0.8-0.2-1.5-0.7-2.3-0.9c-0.8-0.3-1.4-0.6-2.2-0.9c-0.7-0.3-1.7-0.3-2.4-0.7
		c-1.4-0.8-1.9-2.3-2.9-3.6c-0.9-1.3-1.7-2.6-0.6-4.1c0.8-1.3,2-2.2,3.8-2.2c1.1-1.1,3.7-0.3,5.1-0.6c0.6-0.1,1.2-0.4,1.9-0.5
		c0.6-0.1,1.2-0.3,1.7-0.6c1-0.8,0.8-3.5,0.7-4.6c-0.1-0.7-0.2-1.4-0.1-2.2c0-0.7-0.4-1.5-0.4-2.2c-0.1-0.6,0.1-1,0.1-1.7
		c0-1.2-0.5-2.4-0.6-3.5c-0.2-0.7-0.2-1.2-0.5-1.8c-0.3-0.5-0.8-0.9-1.2-1.3c-0.8-1-1.5-1.1-2.9-1.4c-1.1-0.2-2.2-1-3.3-1.4
		c-1.5-0.5-3.1-1-4.4-1.7c-0.6-0.3-1.6-0.8-2.2-0.9c-1.1-0.1-1.2,0-2.1-0.6c-0.6-0.5-1.6-0.6-2.3-1.2c-0.5-0.4-0.7-0.8-1.1-1.2
		c-0.4-0.3-0.8-0.4-1.1-0.8c0,0.1,0,0.1-0.1,0.2c-0.1-0.2-0.1-0.5-0.2-0.6c0.3-0.2,0.5-0.4,0.7-0.6c0.2-0.1,0.4-0.9,0.6-1.1
		c0.3-0.4,0.8-0.6,1.3-0.9c1-0.6,2.1-1.1,3.3-1.6c1.9-0.7,3.4-1.9,5.6-2.3c2.2-0.5,4.5-0.5,6.8-0.4c1.7,0,2.4,0.6,3.2-1
		c0.5-0.9,0.5-3,0.6-4.1c0.1-0.7,0.1-1.8,0.4-2.4s0.7-1.1,0.9-1.8c0.4-1,0-0.6,0.9-0.6c1.5,0.1,3.7,0.5,4.8,1.3
		c1.2,0.8,1.6,2.4,2,3.8c0.4,0.9,0.2,2.1,0.2,3.1c-0.1,1.4-0.5,3.3,0.1,4.6c0.4,0.9,1.7,1.9,2.4,2.5c0.7,0.6,2,2.1,1.9,3.1
		c0.7,0.6,1.2,0.8,0.9,2c-0.1,0.6-0.3,1.2-0.5,1.8c-0.2,0.5-0.5,0.6-0.6,0.9c-0.4,0.7-0.2,1.5-0.4,2.2c-0.2,0.9-0.6,0.7-1.5,1.2
		c-1,0.6-1.2,0.9-1.5,2c-0.2,0.6-0.6,1.5-0.5,2.2c0.8-0.1,0.3,0.6,0.4,1c0.1,0.4,0.8,0.6,0,1c0.5,0.6,0.5,1.8,0.6,2.5
		c0,0.5-0.2,1-0.1,1.5c0.1,0.6,0.4,0.8,0.4,1.4c-0.2,0.1-0.3,0.2-0.4,0.3c0.5,0.6,0.5,2,0.6,2.9c0,0.6,0.1,1.1,0.6,1.5
		c0.5,0.3,1.2-0.3,1.3,0.8c0.6-0.1,1.8,0.5,2.3,0.7c0.7,0.3,1.6,0.8,2.2,1.3c0.4,0.3,0.7,0.7,1.1,0.9c0.4,0.2,0.7,0.2,1,0.4
		c0.2,0.1,0.8,0.7,0.9,0.9c0.3,0.5-0.5,0.7,0.3,0.9c0.1,0.5,0,0.9,0.3,1.4c0.1,0.3,0.8,0.8,0.9,1.1c0.1,0.6-0.6,0.8-0.6,1.3
		c-0.1,0.8,0.2,1.5-0.1,2.3c-0.2,0.7-0.4,1.7-1,2.1c-0.7,0.6-2,0.8-2.9,1.2c-0.6,0.3-1.3,0.6-2,0.7c-0.4,0.1-0.6,0.3-1.1,0.3
		c-0.4,0-1-0.2-1.2,0.1c-0.3,0.3-0.3,2-0.4,2.4c-0.1,0.8,0,1.6-0.1,2.4c-0.1,1,0.3,1.2,0.4,2.1c0.1,0.8-0.2,1.5-0.2,2.3
		c0,0.9,0.1,1.6,0,2.5c-0.1,0.9-0.2,2,0.1,2.9c0.4,1,1.7,1.8,2.7,1.5c0-0.2,0.1-0.2,0.1-0.5c0.9,0.2,1.9,0.4,2.7,0.6
		c-0.1,0.1-0.2,0.4-0.3,0.5c0.2,0.1,0.5,0.1,0.7,0.1c0.2-0.5,1.9-0.6,1.9,0.1c0.4-0.2,1.4-0.6,1.1,0.3c0.6,0.1,2.3-0.1,2.7,0.5
		c2.9,0.2,5.9,1.6,8.3,3.1c1,0.6,1.8,1.7,2.5,2.7c0.5,0.7,1.3,1,1.8,1.8c0.1,0.2,0.2,0.6,0.3,0.8c0,0.1,0.2,0.7,0.2,0.8
		c0.1,0.6,0.2,3.2-0.3,3.3c0,0.6-0.2,1.2-0.4,1.7c0.4,1.1-0.9,3.1-1.9,3.6c-0.6,0.4-1.7,0.4-2.3,0.4c-0.9,0.1-1.6,0.3-2.4-0.2
		c-1-0.6-2-1.9-2.9-2.8c-0.4-0.4-0.7-1-1.2-1.3C154.6,229.4,154,229.4,153.7,229.2 M110.4,219.7c-0.3,0.1-1.2,0.6-1.3,0.8
		C108.9,221.6,110.7,220.3,110.4,219.7z M107.3,220.9c-0.6,0.6-1.3,1.1-1.9,1.7c-0.6,0.6-1.7,1.7-1.8,2.4c0.6-0.2,0.6-0.9,1-1.3
		c0.4-0.5,1-0.6,1.5-1l-0.3,0.1c0.6-0.6,1.3-1.1,2.1-1.7c0.2-0.2,1.1-0.6,0.6-1C108.1,219.9,107.5,220.7,107.3,220.9 M118.1,226.5
		c-0.3-0.2-0.3-0.6-0.6-0.7c-0.4-0.3-1-0.1-1,0.5c0,0.4,0.8,0.7,1.2,0.8c0.3,0,1.5-0.1,1.4-0.5C118.8,226.6,118.4,226.7,118.1,226.5
		 M110.1,221c-0.4,0.3-1,0.6-1,1.1c0,0.3,1.6-0.7,1.7-0.8C111.5,220.5,110.7,220.5,110.1,221 M110.1,222.4l0.2,0.3
		c0.5,0.1,1.6-0.6,0.8-0.9C110.7,221.6,109.9,222,110.1,222.4 M120.7,230c0,0-0.7,0.4-0.5,0.4c0.4,0,0.6,0,0.7,0.4
		c0.5,0,0.8,0,1.3,0.1c0.5,0.1,0.7,0.6,1.1,0.1c-0.4-0.6-1.2-0.8-1.9-0.9C121.4,230,120.9,229.9,120.7,230 M124.3,228.8
		c-0.2-0.3,0.1-0.6-0.1-0.8c-0.4-0.3-1.1-0.1-1.6-0.3c-0.6-0.2-1-0.6-1.8-0.6c-0.8,0.1-0.6,0.4,0,0.6c0.4,0.2,0.9,0.3,1.4,0.4
		c0.5,0.1,1.1-0.1,1.4,0.3c-0.7,0.9-2.6-0.9-3.2-0.1c0,0.1,0.1,0.2,0.1,0.2c0.4,0,0.8,0.1,1.1,0.4c-0.2,0.4-0.9,0.2-0.9,0.7
		c1.1,0.2,2.1-0.6,2.5,0.9c0.9-0.2,1.5,0.6,2.5,0.6c0.1-0.6-0.4-0.3-0.7-0.5c-0.5-0.3-0.6-0.6-0.9-0.9c-0.5-0.5-1.2-0.6-2-0.5
		c0-0.2,0-0.3,0.1-0.5c1-0.3,1.8,0.4,2.5,0.9c0.4,0.3,0.6,0.5,1,0.3C126.6,229.5,124.5,229.1,124.3,228.8 M128.3,221.2
		c-0.5,0.1-1-0.2-1.6-0.1c-0.5,0.1-0.9,0.5-1.3,0.6c-0.6,0.2-1.5,0.3-2.1,0.3c-0.6-0.6-1.9,1.6-2.5,1.9c0-0.3-0.1-0.6-0.1-0.8
		c-0.6-0.1-3,1.7-3.2,2.3c0.6,0,3.2-0.6,2.9,0.8c-0.3,0.2-0.3,0.3-0.5,0.6c0.6,0,0.9,0.1,1.4,0.3c0.6,0.1,0.9,0,1.5,0.1
		c1,0,2,0.3,3,0.2c-0.1-0.4-1.1-0.5-1-0.6c0.1-0.5,1.9,0,2.2-0.1c0.9-0.1,1.7-0.6,2.1-1.3c0.3-0.5,0.6-1.6,0.6-2.1
		c0.2-0.6,0.3-1.8-0.1-2.3C129,220.7,128.7,221.2,128.3,221.2"/>
	<path class="st1" d="M273.6,267.3c0,0.1-0.3,0.2-0.4,0.3c-0.1,0.6-0.3,1.2-0.4,1.8c0,0.2,0,0.7-0.1,0.9c-0.1,0.2-0.4,0.4-0.5,0.6
		c-0.2,0.5-0.2,1.2-0.5,1.4c0-0.3-0.3-0.6-0.3-0.7c-0.6,0.4,0,0.7-0.1,1.2c-0.1,0.4-0.6,0.7-0.8,1.1c-0.6,0.6-1.3,1.3-2,1.8
		c-0.7,0.5-1,0.2-1.9,0.3c-0.7,0.1-1.2,0.9-1.7,1.4c-0.1,0.2-1.7,1.5-1.7,1.5c0.1-2.1-0.7-0.1-1.2,0.4c-0.5,0.1-0.3,0.5-0.6,0.8
		c-1.4,1.2-3.9,1.5-5.6,2c-1.7,0.6-3.5,0.6-5.1,1.3c-2,0.8-4.5,0.5-6.8,0.7c-2.9,0.3-5.8,0.1-8.8,0c-1.4-0.1-3-0.3-4.3-0.6
		c-3.1-0.7-6-1.2-8.9-2.8c-1.2-0.6-1.9-1.8-3-2.5c-1-0.6-1.7-1.4-2.5-2.2c-0.6-0.6-0.5-0.6-0.7-1.5c-0.3-0.8-0.8-0.7-1.3-1.4
		c-0.1-0.2-0.1-0.7-0.2-1c-0.1-0.3-0.3-0.5-0.5-0.8c-0.8-1.7-1.1-3.8-1.5-5.6s-0.2-3.7,0.1-5.6c0.3-2.1,0.7-4.3,1.3-6.5
		c0.2-0.7,0.5-1.6,0.6-2.3c0.4-2,0.9-3.9,1.5-5.9c0.6-2,1-4.2,1.7-6.2c0.7-2.1,1.8-4.3,2.2-6.5c0.2-0.9,0.2-1.8,0.5-2.6
		c0.4-1.1,0.8-2.1,1.2-3.2c0.4-1.4,1.5-3.8,1.1-5.2c-0.6,0.4-1.1,0.8-1.7,1.2c-0.5,0.4-1.1,0.6-1.6,1.1c-0.5,0.5-0.9,1.1-1.4,1.7
		c-0.7,0.8-1.8,1.5-2.6,2.2c-0.4,0.4-0.6,1-1.1,1.2c-0.2,0.1-0.5,0-0.6,0.2s0,0.5-0.2,0.6s-0.3,0-0.4,0c-0.1,0.1-0.1,0.3-0.2,0.3
		c-0.1,0.1-0.6,0.1-0.6,0.2c-0.2,0.2,0,0.3-0.2,0.5c-0.2,0.3-0.4,0-0.6,0.1c-0.4,0.1-0.8,0.6-1.2,0.7c-0.5,0.3-0.8,0.6-1.3,0.8
		c-0.8,0.6-1.6,1.4-2.4,1.9c-1,0.6-1.1,1-1.9,1.9c-0.2,0.2-0.5,0.5-0.7,0.6s-0.6,0-0.8,0.1c-0.3,0.2-0.3,0.4-0.4,0.7
		c-0.3,0.7-0.9,0.6-1.7,0.5c0-0.4,0.7-0.6,1-0.8c1.1-0.7,1.9-2,2.7-3c0.6-0.6,3.6-1.8,2.9-2.7c-0.6,0.8-1.6,1.2-2.5,1.7
		c-1,0.6-1.9,1.5-2.8,2.2c-0.6,0.5-0.6,0.9-1,1.6c-0.5,0.6-1.3,0.8-1.5,1.6c0.2,0,0.5,0.2,0.6,0.2c-0.4,0.5-1.9,1.7-1.9,2
		c1.2-0.1,2.1-2.4,3.4-2.6c-0.3,0.8-1.9,2.1-2.6,2.7c-0.8,0.6-1.8,1.3-2.5,2c-0.6,0.6-0.6,1.1-1.2,1.8c-0.3,0.5-0.9,0.7-1.2,1.1
		c-0.6-0.5-1.8,0.8-1.9,1.5c0.1,0.1,0.2,0.3,0.3,0.4c-0.6,0.6-1.2,0.9-1.9,1.4c-0.6,0.4-1.3,0.7-1.4,1.5c-0.6,0-1.5,0.3-1.4,1
		c0.2,0,0.5,0,0.6-0.1c-0.4,0.9-1.3,1.2-1.6,2.2c-0.2,0.8,0.2,1.7,0.1,2.5c-0.1,0.6-0.6,1.2-0.6,1.9c-0.2,0.7,0,1.1-0.1,1.9
		c-0.1,1.5-0.1,2.8,0.1,4.3c0.1,1.1,0.5,3.1-0.1,4.1c0.7,1.2,0.6,3,0.6,4.3c0.1,0.8,0.3,1.8,0.4,2.7c0.2,1.5,0.3,2.9,0.4,4.3
		c0.1,0.6,0.2,1.4,0.3,2.1c0.1,1.4,0.3,2.9,0.4,4.2c0.1,0.9-0.2,1.7-0.4,2.6c-0.2,0.8-0.2,1.6-0.6,2.4c-0.6,1.4-1.6,3-3.1,3.5
		c-1.7,0.6-3.2,0.6-5.1,0.3c-2.6-0.4-4.4-3.9-5.7-5.8c-0.7-1.1-1.5-2.1-2.1-3.3c-0.5-0.8-0.5-0.9-0.7-1.9c-0.1-0.6-0.4-1.3-0.6-1.9
		c-0.6-1.3-0.2-2.5-0.4-3.9c0.9-0.5,0.1-1,0.2-1.7c0.1-0.5,0.4-0.3,0.6-0.6c1.3-2.4,1.5-4.5,1.9-7.3c-0.9,0.6-2.1,1.4-2.8,2.3
		c-2-0.5-2.6,3.2-4.1,4.3c-0.8,0.6-1.7,0.9-2.6,1.1c-0.4,0.1-0.3,0.3-0.7,0.3c0,0-0.6-0.2-0.7-0.2c-0.6-0.2-1-0.2-1.6-0.2
		c0-0.6-0.3-0.4-0.6-0.6c-0.1-0.1-0.5-0.5-0.6-0.6c-0.5-0.5-1.1-0.6-1.5-1c-0.5-0.5-0.8-1.3-1.2-1.9c-0.4-0.5-0.6-0.9-0.8-1.5
		c-0.4-1.2-0.1-2.4-0.3-3.5c-0.3-2-0.1-3.8,1.2-5.4c1.2-1.5,2.8-2.6,3.7-4.3c1.3-2.6,2.8-5,4.3-7.4c0.7-1.2,1.8-2.1,2.6-3.2
		c0.9-1.2,1.9-2.5,2.9-3.7c1.7-2.1,3.5-4.2,5.2-6.3c1.2-1.5,2.5-2.4,3-4.3c0.4-1.5,0.8-3.1,1.1-4.6c0.2-0.8,0.2-1.8,0.3-2.6
		c0.1-1,0.5-1.9,0.6-2.9c0.4-1.7,0.4-3.3,0.8-5c0.4-1.2,0.7-2.7,0.9-4c0.2-1.2,0.5-2.1,0.8-3.3c0.5-1.2,0.8-2.4,1.2-3.6
		c0.4-1.1,0.3-2.4,0.7-3.5c0.3-0.7,0.6-1.6,0.8-2.3c0.2-0.7,0.6-1.3,1-2c0.3-0.6,0.9-1.2,1.1-1.9c0.2-0.4,0-0.8,0.1-1.2
		c0.1-0.3,0.5-0.6,0.6-0.9c0.5-0.8,0.5-1.4,0.7-2.2s1.1-1.6,1.6-2.2c1.1-1.3,1.9-3,2.9-4.3c1-1.3,1.5-2.5,3-3.4
		c1.5-0.9,3.1-1.1,4.7-0.6c0.9,0.3,1.7,0.3,2.2,1.2c0.3,0.5,1,1.4,1.1,1.9c0.1,0.5,0,2-0.1,2.5c-0.3,0.9-1.3,1.8-1.9,2.5
		c-0.7,0.9-1.3,2-2,3.1c-0.9,1.3-1.9,2.1-2.6,3.4c-0.4,0.6-0.6,1.3-1,1.9c-0.5,0.6-1.1,0.8-1.7,1.3c-0.6,0.6-0.9,1.2-1.2,1.9
		c-0.1,0.4-0.2,0.6-0.3,0.9c-0.4,0.7-0.7,1.4-0.9,2.2c-0.8,3.9-2,7.7-3,11.6c-0.6,2.1-0.6,4.1-1.2,6.3c-0.3,1.1-0.3,2.3-0.6,3.4
		c-0.8,2.9-0.4,6-0.8,8.9c-0.2,1.4-0.4,2.8-0.6,4.3c-0.2,1.6-0.1,3.1-0.3,4.7c-0.1,0.6-0.6,1.7,0.3,1.9c0.8,0.2,1.8-1.2,2.2-1.7
		c0.8-0.8,1.8-1.6,2.7-2.2c1.3-0.8,2.5-1.8,3.6-2.7c3.1-2.6,5.9-5.5,9.1-8c1.2-0.9,2.3-1.9,3.4-2.7c2.1-1.7,4.4-3.2,6.2-5.2
		c0.9-1,1.8-1.9,3.1-2.6c1.4-0.8,2.2-2.2,3.5-3.1c1-0.7,2.3-1.1,2.6-2.5c0.3-1.6,0.9-1.4,1.9-2.4c0.6-0.7,1-1.2,1.9-1.9
		c1.9-1.3,4.5-2.3,6.9-2.4c1.4,0,3.7,1.1,4.2,2.5c0.4,1.3,0.6,3,0.1,4.2c-0.3,0.7-2.3,2.3-2,3c0.1,0.1,0.1,0.4,0,0.5
		c-0.4,0.6-1.9,1-2.6,1.3c-1,0.4-1.5,0.5-2,1.6c-0.6,1.5-1,3.3-1.5,4.8c-0.5,1.8-1.1,3.5-1.5,5.4c-0.8,4-1.7,7.9-2.2,11.9
		c-0.1,0.9-0.5,1.7-0.6,2.7c-0.1,1.7,0.1,3.1-0.1,4.8c-0.1,0.8,0,1.5,0,2.3c0.1,1.2-0.1,2.7,0.2,4c0.3,1.2,0.6,2.4,1.3,3.4
		c1.9,2.6,4.5,3.8,7.4,4.8c1.2,0.4,2.3,0.9,3.6,1.2c0.6,0.1,2.8-0.1,3,0.6c-0.6,0.4-2,0.3-2.9,0.3c1.7,0.5,4.8,0.6,6.3,0.5
		c1.1-0.1,2.4-0.5,3.5-0.3c0.6,0.1,0.8,0.4,1.4,0.5c1.7,0.5,3.2-0.4,4.9-0.3c0.8,0,1.7,0.3,2.5,0c0.1-0.3,0.3-0.5,0.4-0.7
		c-0.3-0.1-0.7-0.3-0.9-0.6c-0.4-0.5,5.9-0.6,5.6-0.3c-0.2,0.1-0.4,0.3-0.6,0.4c0,0.3,0.2,0.5,0.4,0.6c0.6-0.6,2.2-0.6,3.1-0.7
		c1.3-0.2,2.5-0.3,3.8-0.6c0.8-0.3,1.7-0.6,2.5-0.8c0.5-0.1,1.2-0.6,1.7-0.6c0.7,0.1,0.7,1.2,0.9,1.9c-0.2,0.1-0.4,0.4-0.5,0.5
		C273.4,266.8,273.6,267.1,273.6,267.3 M199.1,239c-0.6,0.6-1.5,1.4-1.9,2.1c-0.2,0.4,0,1-0.4,1.2c-0.6,0.5-0.2-0.8-0.2-1
		c-0.6-0.1-1,0.9-1.4,1.3c-0.5,0.5-1.1,0.8-1.2,1.5c0.6-0.2,0.9-1,1.7-0.9c0,0.3-1.1,1.4-1.4,1.5c-0.5,0.3-0.7-0.1-1.1,0
		c-0.4,0.3-0.6,0.6-0.7,1.1c0,0,0,0,0.1,0.1c0.4-0.3,0.7-0.9,1.2-0.7c-0.3,0.6-1.2,0.9-1.5,1.7c0.8,0.1,1.8-1.5,2.4-1.9
		c0.7-0.6,1.4-1.2,2.1-1.9c0.3-0.3,0.6-0.6,0.8-1c0.5-0.5,0.4-0.6,0.6-1C198.5,240.4,200.3,239.2,199.1,239 M249.7,266.6
		c0.1-0.2-0.2-0.2-0.3-0.3c-0.4-0.1-0.8-0.1-1.1,0c-0.2,0-1,0.5-1.1,0.5c0.6,0.2,1.1-0.2,1.7-0.2
		C249.1,266.5,249.7,266.8,249.7,266.6 M251.1,266.7C251.1,266.6,251.1,266.6,251.1,266.7c-0.4-0.2-0.7,0.1-0.6,0.4
		C250.9,267.3,251.2,266.8,251.1,266.7 M253.7,266.4c0.1-0.6-1.7-0.4-1.9,0.1C252.2,266.6,253.7,266.6,253.7,266.4 M264.7,266
		c0,0,0.6-0.2,0.4-0.2c-0.6-0.3-1.6-0.1-2.1,0.4c0.3,0.3,0.7-0.1,1-0.2C264.2,266,264.5,266.1,264.7,266 M220.9,221.2
		c-0.2,0.6,0.6-0.1,0.8-0.2c0.3-0.2,1-0.6,1.1-1C222.8,219.2,221,220.7,220.9,221.2 M219.1,222.6c-0.5,0.3-1.4,0.6-1.4,1.2
		c0,0.4,1.7-1.1,1.8-1.1c0.4-0.3,1.3-0.6,0.9-1.3C219.9,221.5,219.7,222.4,219.1,222.6 M192.7,245c0.2-0.2,0.4-0.3,0.6-0.3
		c0.1-0.1,0.1-0.2,0.3-0.2L192.7,245 M187.5,249.9c0-0.1,1.6,0,1.2-0.9C188.4,248.2,187.5,249.6,187.5,249.9 M174.2,247.3
		c-1.6,2.1-2.9,4.6-3.9,7c-0.6,1.2-1.3,2.4-1.3,3.8c0.7,0.2,2.8-1.4,3.5-1.7c0.9-0.6,1.7-1.1,2.2-2c0.6-1.1,0.6-2.3,0.9-3.5
		c0.6-1.9,0.7-4.2,0.5-6.1C175.3,245.4,174.6,246.7,174.2,247.3"/>
	<path class="st1" d="M100.3,52c0.5-0.7,1.6-2.3,2.4-2.3c-0.3-0.9,1.1-0.6,1.7-0.8c0.8-0.3,1.6-1,2.4-1.3c1.7-0.5,3.1-1,4.9-1.1
		c0.8,0,1.7-0.2,2.5-0.2c0.8-0.1,1.6,0.2,2.5,0.2c1.6,0,2.9-0.2,4.3,0.2c1.4,0.3,2.9,0.1,4.3,0.6c2.8,0.9,5.6,2.2,8,3.9
		c2.5,1.8,3.9,3.9,5.5,6.4c0.4,0.6,0.7,1.6,0.8,2.3c0.1,0.8-0.4,3.2-1.7,3.2c-0.5,0.8-1.3,1.1-2,1.6c-0.6,0.4-1,1.1-1.8,1.3
		c-2,0.8-4.3,0.8-6.6,0.8c-0.8,0-0.8-0.3-1.5-0.6c-0.6-0.2-1.2-0.3-1.9-0.5c-0.5-0.2-1-0.5-1.4-0.6c-0.7-0.2-1.3,0.1-2-0.2
		c-0.6-0.2-1-0.5-1.5-0.8c-1-0.8-0.9-2.1-1.7-3.1c-0.6-0.7-1.9-0.9-2.9-1.2c-0.6-0.2-1.4-0.2-2.1-0.4c-1.8-0.5-3.1-0.3-4.9-0.1
		c-0.8,0.1-1.6,0-2.3-0.2c-0.8-0.2-1.1-0.6-1.9-0.9c-0.8-0.3-1.1-0.1-1.9-0.6C100.1,56.3,99.1,53.9,100.3,52"/>
	<path class="st1" d="M81.2,140.1c-0.1,0.2,0.1,0.6,0,0.6c-0.2,0.3-0.5,0.1-0.6,0.3c-0.5,0.5-0.1,0.6-0.1,1.1c0,0.7-0.5,1.3-0.7,1.9
		c-0.3,0.6-0.5,1.2-1,1.7c-0.5-0.5,0.2-0.6,0.4-1c0.2-0.4,0-0.9,0.1-1.4c0.2-0.7,1-1.5,1-2.1c-0.7,0.2-1.1,2.1-2,2
		c-0.8-0.1,0.3-0.6,0.4-0.8c0.1-0.4-0.6-0.8,0.2-1.1c-0.1-0.9-0.7,0.3-0.9,0.5c-0.1-0.3-0.3-0.6-0.3-0.8c-0.1-0.3,0-0.7-0.3-0.8
		c-0.7-0.6-1,0.7-1.4,0.8c0.4,0.6,0.6,0.3,0.3,1.1c-0.1,0.2-0.3,0.2-0.3,0.5c0,0.2,0,0.6,0,0.8c-0.1,0.4-0.1,1.2-0.3,1.6
		c-0.3,0.5-0.9,0.6-1.4,1c-1,0.7-0.7,1.3-0.4,2.3c0.2,0.6,0.4,0.7,0.4,1.4c0,0.8-0.2,1.7-0.3,2.5c-0.1,0.7,0.2,1.5,0.2,2.3
		c-0.1,0.6-0.1,1.5-0.3,1.9c-0.6,1.3-2.1,1.9-3.2,2.2c-0.7,0.3-1.6,0-2.4,0c-1.3,0.1-2,0-3.1-0.6c-0.6-0.4-1.3-0.4-1.9-0.6
		c-0.5-0.3-0.9-0.7-1.2-1.2c-0.6-0.7-1.3-1-1.9-1.6c-0.7-0.6-1.3-1.6-2.1-2.1c-0.9-0.6-1.4-1.7-2.3-2.1c-1.2-0.6-1.7-1.1-2.7-2
		c-1.6-1.6-3.1-3-4.4-4.7c-0.3-0.5-0.6-0.7-0.7-1.2c-0.3-0.7-0.6-0.9-1-1.4c-0.6-0.6-1.2-1.9-1.5-2.7c-0.4-0.8-0.7-1.7-0.8-2.6
		c-0.7-0.8-1.5-2.5-1.9-3.5c-0.2-0.4-0.3-0.7-0.3-1.2c0-0.6-0.1-0.6-0.5-1c0.3-0.3,0.6-0.6,1-0.4c0-0.2,0-0.6,0-0.7
		c-0.1,0-0.2-0.1-0.3-0.1c0-0.2,0.3-0.5,0.3-0.6c0-0.1-0.1-0.4-0.1-0.5c0-0.2-0.6-0.6,0.2-0.7c0.1-0.6-0.3-0.8-0.5-1.3
		s-0.3-1.2-0.3-1.7c0.5,0.1,0.3,0.6,0.6,0.9c0.3-0.4,0-1.3-0.2-1.6c-0.3-0.5-0.8-0.6-0.7-1.3c0.6-0.4,0.6,0.5,0.9,0.7
		c0,0,0.3-2.6,0.3-2.9c0-1-0.4-1.9-0.4-3c0-1.3,0.2-2.6,0.3-3.8c0.1-1.2,0-2.4,0.1-3.6c0-0.6-0.4-1.1-0.4-1.6c0-0.2,0.4-0.4,0.4-0.6
		s-0.1-0.6-0.1-0.8c0.2-0.1,0.3-0.3,0.4-0.4c-0.6-0.3,0-2.2,0-2.9c-0.2,0.1-0.3,0-0.4,0.3c0-0.3,0-0.4,0-0.6s0.1-0.5,0.2-0.5
		c-0.3,0.1-0.1,0.3,0,0.4c0.1-0.3,0-0.6-0.2-0.6c0-0.4,0.3-0.5,0.4-0.7c0.1-0.5-0.4-0.5,0-0.7c0-0.4,0.3-0.9-0.1-1
		c0.1-0.5,0.4-0.8,0.3-1.4c0.5-0.2,0.6-1,0.2-1.3c-0.6,0.5-0.5,2-0.9,2.8c-0.1-0.7,0.1-1.9,0.3-2.6c0.1-0.4,0.5-0.5,0.4-1
		c-0.1-0.5-0.6-0.5-0.7-0.9c0.2-0.2,0.5-0.2,0.6-0.2c0.1,0.6,0.4,1,0.2,1.6c0,0.1,0.1,0.1,0.1,0.2c0.1,0,0.2-0.1,0.2-0.1
		c0.1-0.6,0.1-1.2,0.3-1.7c0.4-1.3,0.6-2.8,0.6-4.1c-0.1,0.1-0.2,0.1-0.3,0.2c0-0.1-0.3-0.3-0.3-0.4c-0.1,0.1-0.2,0.2-0.3,0.4
		c-0.5-0.2,0-0.6,0-1c0.1,0.1,0.3,0.3,0.4,0.4c0.1,0,0.3-0.1,0.4-0.1c0.2,0.1,0.2,0.1,0.3,0.1c0-0.7,0.4-1.2,0.5-1.9
		c0.1-0.4-0.1-0.7,0-1.1c0.3-0.8,0.5-1.7,0.6-2.4c0.1-0.5,0.3-0.9,0.4-1.5c-0.6,0-1.1,3.5-1.5,4.2c-0.1-0.1-0.2-0.2-0.2-0.3
		c-0.1,0.2-0.2,0.4-0.2,0.6c-0.3-0.1-0.3-0.3-0.2-0.6c-0.1,0-0.3-0.1-0.5,0c-0.2-0.4,0.1-0.7,0.5-0.5c0.1-0.5,0.3-1.3,0.8-1.3
		c0-0.8-0.1-1.7,0.1-2.6c0.1-0.5,0.2-2.1,0.7-2.3c0.2,0.5-0.2,1.7,0.5,1.8c0.1-0.4,0.3-1.4,0-1.6c0.1-0.6,0.9-1.1,0.7-1.7
		c0.1-0.2,0.2-0.6-0.1-0.6c-0.4-0.5-0.2,0.2-0.2,0.3c-0.1,0.3-0.2,1.3-0.7,0.7c0.2-0.5,0.3-0.9,0.4-1.4c0.2-0.9,0.6-1.8,0.8-2.7
		c0.2-1,0.4-2.1,0.7-3.1c0.2-0.6,0.3-1.5,0.6-2.2c0.3-0.6,0.3-1.5,0.5-2.1c0.2-0.6,0.6-1.3,0.6-1.9c0-0.6-0.1-1,0.1-1.6
		c0.1,0,0.1,0,0.2,0c0.3-1,0.1-1.9,0.6-3c0.6-1,1.3-1.9,2.2-2.5c0.6-0.4,1.4-0.7,2-0.7c0.3,0,0.6,0.2,0.8,0.1
		c0.4-0.1,0.4-0.5,0.7-0.6c0.5-0.2,0.6,0.2,1,0.3c0.9,0.3,1.9,0.5,2.4,1.2c0.3,0.4,0.7,0.6,1,0.9c0.2,0.3,0.2,0.7,0.5,1
		c0.6,0.9,1.4,1.6,1.7,2.8c0.3,1.2,0.6,2.3,0.5,3.5c-0.1,0.8-0.6,1.9-0.5,2.5c0,0.1,0.3,0.1,0.3,0.2c0,0.2,0,0.3,0,0.5
		c0.1,0.9-0.2,2.1-0.4,3.1c-0.3,1.7-0.5,3.4-0.6,5.1c-0.1,0.8,0.1,1.7,0,2.5c-0.1,0.8-0.4,1.6-0.5,2.4c-0.1,1.4-0.2,2.9-0.2,4.3
		c0,1.1-0.2,2.1-0.2,3.2c-0.1,1-0.2,2,0,3.1c0.2,0.9,0,1.9,0.1,3c0.1,1.3,0.1,2.5,0.1,3.8c0,1.2,0.2,2.5,0.3,3.7
		c0,1.2-0.1,2.4,0,3.6c0.1,0.8,0.4,1.6,0.6,2.4c0.3,1.4,0.6,2.7,0.7,4.2c0.1,0.7,0,1.3-0.1,2c0,0.7,0.3,1.4,0.3,2
		c-0.4,2.6-1.7,5.6-3.5,7.4c-0.5,0.4-1.1,0.6-1.4,1.2c-0.6,1.2,0,2.8,0.6,3.8c0.6,1,1.2,2.5,2.6,2c1.4-0.5,2.3-2,2.6-3.4
		c0.2-1,0.7-2.1,1.2-3.1c0.2-0.5,0.4-1.1,0.6-1.5c0.2-0.4,0.7-0.6,1-1c0.8-0.9,1.5-1.8,2.1-2.9c0.3-0.6,0.2-1.1,0.4-1.6
		c0.2-0.6,0.7-0.7,1-1.1c0.4-0.5,0.5-1,0.8-1.5c0.3-0.4,0.9-0.6,0.6-1.1c0.5-0.5,0.9-1,1-1.6c0.1-0.6-0.1-1.2,0.3-1.9
		c0.4-0.6,0.7-1,1.3-0.9c-0.1,0,0.3,0.3,0.3,0.3c0.1,0.1,0.3,0.1,0.4,0.1c1.8,1,0.3,3.6,1.9,4.5c0.3,0.9,1,1.6,1.3,2.5
		c0.1,0.5,0.1,0.8,0.2,1.3c0.3,0.8,0.4,0.6,0.1,1.3c-0.3,0.8-0.7,1.8-1.5,2.4c-0.6,0.6-1.1,0.6-1.2,1.6c-0.1,0.8-0.1,1.8,0.1,2.5
		c0.1,0.7,0.8,1.7,1.4,2.1c0.5,0.4,1.1,0.6,1.5,1.1c0.4,0.5,0.6,1,0.7,1.5c0.6,1.2,1.3,2.2,1.2,3.6c0,0.6-0.4,1.2,0,1.8
		c0.2,0.3,0.6,0,0.6,0.5C81.8,139.7,81.3,139.8,81.2,140.1 M44.5,114.6c-0.6,0.5,0,1.7,0,2.3c0,0.5,0,0.9,0.1,1.5
		c0,0.3-0.1,1.2,0.3,1.3c0.2-0.6,0-1.1,0.1-1.7c0.1-0.9,0.1-1.9,0.1-2.9C44.9,114.9,44.7,114.5,44.5,114.6 M43.5,114.6
		c-0.4,0.2-0.2,1.9-0.2,2.3c0,0.9-0.2,1.8-0.2,2.6c0,0.4,0.1,0.7,0.2,1.1c0,0.5-0.2,0.6-0.2,1c-0.1,0.6,0,1.6,0,2.2
		c0.5-0.1,0.3-1.5,0.3-1.9c0.1-0.6,0.3-1,0.3-1.7c0-0.6-0.2-1.1-0.1-1.7c0-0.4,0.1-0.7,0.1-1.1C43.7,116.7,44,115.4,43.5,114.6
		 M44.6,108.8c-0.2,0.2-0.1,0.8-0.2,1.1c-0.1,0.4-0.2,0.7-0.2,1.2s0.1,0.9,0.1,1.4c0,0.2,0,0.6,0.1,0.7c0.3,0.4,0.4,0,0.5-0.3
		c0-0.4-0.3-0.8-0.2-1.3c0-0.3,0-0.6,0.1-1c0.1-0.4,0.3-0.7,0.3-1.2C44.9,109.1,44.8,108.3,44.6,108.8 M44.4,89.8
		c-0.3-0.2,0.2-0.6,0.1-0.8c-0.1-0.3-0.3-0.2-0.4,0.1c-0.1,0.2-0.1,1,0.2,1.1c0.2,0.1,0.5-0.2,0.6-0.4c0.1-0.2,0.2-0.8-0.1-0.6
		C44.5,89.3,44.6,89.7,44.4,89.8 M41.6,109.4c-0.2,0.2-0.4,0.1-0.3,0.5c0,0.1,0.3,0.6,0.5,0.5c0.2-0.1,0-0.4,0.1-0.5
		c0.2-0.4,0.6-0.5,0.4-0.9C42.1,109,41.7,109.4,41.6,109.4 M42,108.2c0.3-0.1,0.3-1.2,0-1.3C41.8,107,41.5,108.4,42,108.2
		 M41.9,105.2c-0.3,0-0.3,0.7,0.1,0.7C42.3,105.9,42.2,105.2,41.9,105.2 M42.1,100.9c-0.2,0.3-0.1,0.7-0.1,1.1c0,0.4,0,0.8,0.1,1.2
		c0.4,0.2,0.3-0.4,0.3-0.6c0-0.5,0-0.9,0-1.4C42.3,101.1,42.3,100.5,42.1,100.9 M43.4,92.2c0,0.2-0.1,0.7,0.1,0.8h0.1
		c0.3,0,0.3-1.1,0.1-1.4C43.6,91.5,43.4,92.1,43.4,92.2 M43.4,110.8c0.3-0.5,0.3-1.8,0.3-2c0-0.5,0-0.9,0-1.4c0-0.4,0.2-1.2,0-1.4
		C42.9,106.3,43.5,110.3,43.4,110.8"/>
	<path class="st1" d="M96.5,128.8c-0.2-0.1-0.5,0.1-0.7-0.1c-0.2-0.1-0.1-0.3-0.3-0.4c-0.3-0.1-0.8-0.3-1.2-0.3
		c-0.1-1.2,0-2.2,0.3-3.3c0.3-1.1,0.5-2.1-0.6-2.9c-0.7-0.5-1.2-1.1-1.9-1.6c-0.5-0.4-1.1-0.9-1.7-1.1c-0.7-0.2-1.4-0.1-0.9-1.1
		c0.6-1.3,2.7-1.9,3.8-2.6c2.6-1.7,5.3-3.1,8.4-2.5c0.6,0.1,0.9,0.3,1.5,0.2c1.4-0.2,2.6-0.4,4,0.1c0.6,0.2,0.8,0.4,1.4,0.4
		s1.1,0,1.7,0c1.7,0,3.3,0.6,5,0.5c1-0.1,1.9,0.3,2.1-0.9c0.2-0.7,0.2-1.6,0.2-2.3c0-0.9,0.2-1.9,0.2-2.8c0-0.8-0.5-1.5-0.5-2.3
		c0-0.5,0.1-1,0.1-1.4c0,0-0.1-0.6-0.2-0.7c-0.5-1.2-0.3-2.3-0.3-3.6c0-0.6,0.2-1.3,0.1-1.9s-0.1-0.9-0.1-1.7
		c0.1-1.3-0.4-2.4-0.4-3.7c0-0.6-0.2-1.5-0.6-1.9c-0.6-0.7-1.2-0.3-1.9-0.5c-0.5-0.1-1.2-0.2-1.4-0.6c-0.5-0.1-1-0.2-1.3-0.6
		c-0.7,0.2-0.9-0.5-1.5-0.7c-0.6-0.3-1-0.2-1.6-0.6c-0.6-0.3-1.2-0.4-1.8-0.6c-0.6-0.5-1.3-1-1.9-1.5c-0.6-0.4-1.3-1-1.5-1.8
		c-1.1-3.9,6.9-4,8.9-4.3c0.4-0.1,0.5-0.3,0.8-0.3c0.5,0,0.8,0.1,1.3,0c0.6-0.1,2.1-0.5,2.5-1c0.6-0.7-0.3-1.3-0.3-2.1
		c0-0.6,0.4-1.8,0.6-2.3c0.2-0.4,0.6-0.4,0.8-0.7c0.6-0.7,0.8-1.4,2.1-1.2c0.4,0.1,0.7,0.3,1.1,0.3c0.5,0,0.9,0,1.4,0
		c0.9,0,1.8,0.3,2.4,0.9c0.5,0.5,1.2,1.3,1.3,2c0.2,1-0.4,1.5,0.6,2.1c0.6,0.5,1.9,0.6,2.7,1c0.8,0.4,1.6,0.5,2.4,0.8
		c0.2,0.1,0.4,0,0.6,0.1c-0.1,0.1-0.3,0.3-0.4,0.4c0.5,0.2,0.9,0.1,1.4,0.3c0,0.3,0.1,0.5-0.1,0.7c0.6,0.8,1.3,1.3,1.2,2.4
		c0.3-0.1,0.6,0,0.9,0.1c0.1,0.4-0.1,0.6-0.4,0.6c0,0.6,0.1,1.2,0.1,1.8c0,0.1-0.2,0.2-0.2,0.3c0,0.2,0.1,0.3,0.1,0.5
		c0,0.5,0,0.9-0.1,1.4c-0.5,0.3-0.8,0.4-1.3,0.7c-0.4,0.4-0.6,0.8-0.9,1.1c-0.8,0.6-2.1,1-3.1,1.3c-1.2,0.4-2.3,0.5-2,1.9
		c0.1,0.5,0.3,0.8,0.5,1.2c0.5,0.9,0.5,2.2,0.6,3.2c0.1,0.4,0.3,0.6,0.4,0.9c0.1,0.6,0,1.1,0.1,1.6c0.1,0.5,0.3,0.8,0.3,1.2
		c0,0.4,0,0.6,0.1,0.9c0.1,0.3,0.2,0.4,0.3,0.6c0.2,0.6-0.2,1.4-0.1,2c0.1,0.6,0.4,1.1,0.3,1.9c0,0.6-0.1,1.1,0,1.8
		c0.1,0.6,0.5,1.1,0.6,1.7c0.4,1.8,0.1,4,0,5.7c0,0.5-0.2,0.9-0.2,1.4c0,0.7,0.3,0.6,0.6,1.1c0.2,0.5,0.1,0.7,0.5,1.1
		c1.2,1.4,2.9,1.8,4.3,2.8c0.8,0.6,1.7,1.3,2.6,1.8c1,0.5,1.7,1.2,2.6,1.9c1.4,0.9,1.9,1.9,1.8,3.6c-0.1,1.2-0.6,2.3-0.6,3.5
		c-0.1,0.6-0.3,1.2-0.6,1.9c-0.2,0.6-0.3,1.3-0.8,1.7c-1.3,0.8-2.8-0.8-3.8-1.5c-0.7-0.6-1.7-0.8-2.5-1.3c-0.4-0.2-1.9-0.7-1.9-1.2
		c-0.6,0.1-1.1-0.1-1.8-0.5c-0.5-0.3-0.7-0.6-1.2-0.8c-0.7-0.3-1.9-0.8-2.7-0.7c-1.5,0.2-1.7,2.6-3.4,2.7c-0.2,0.9-0.8,1.3-1.5,1.9
		c-0.1,0.1-1.4,1.5-1.5,1.2c-0.1-0.3-0.1-0.4,0.1-0.6c0-0.1,0-0.2,0-0.4c-0.8,0-1.8,0.9-2.6,1.3c-0.6,0.2-1.2,0.5-1.9,0.6
		c-0.6,0.2-1.5,0.2-2.1,0.3c-0.7,0.2-1.1,0.2-1.8,0c-1.4-0.4-2.7,0.5-4-0.4c-0.6-0.3-1-0.6-1.5-1c-0.6-0.4-0.8-0.6-1.3-0.9
		c-0.6-0.5-1.1-0.4-1.8-0.6c-0.9-0.4-1.1-1.2-1.8-1.8c-0.5-0.5-1.4-0.6-2-0.8c-0.7-0.2-1.1-0.6-1.7-1.1
		C98.1,129.8,97.3,129,96.5,128.8 M105.2,125.6c0.6-0.2,0.5-0.6,1.2-0.6c0.5,0,0.8,0.2,1.3,0.3c0.6,0.2,2,0.2,1,1
		c0.3,0.5,0.7,0.2,1.1,0.1c0.3-0.1,1-0.2,1.1-0.5c-0.4-0.4-1.6,0.3-1.6-0.4c0-0.1,0.6-0.6,0.7-0.7c0.3-0.2,0.6-0.5,0.9-0.6
		c0.6-0.3,1.2-0.5,1.7-1c0.8-1.1-0.4-0.5-1-0.6c-0.5-0.1-0.3-0.3-0.6-0.4c-0.4-0.1-0.6,0-1,0c-0.8,0-1.6-0.2-2.3-0.3
		c-1.6-0.3-3-0.2-4.5,0.3c-0.3,0.1-2.2,0.6-2.3,0.8C100.4,125.2,104.8,123.9,105.2,125.6"/>
</g>
</svg>
