<?xml version="1.0" encoding="utf-8"?>
<!-- Generator: Adobe Illustrator 22.1.0, SVG Export Plug-In . SVG Version: 6.00 Build 0)  -->
<svg version="1.1" id="レイヤー_1" xmlns="http://www.w3.org/2000/svg" xmlns:xlink="http://www.w3.org/1999/xlink" x="0px"
	 y="0px" viewBox="0 0 180 143.2" style="enable-background:new 0 0 180 143.2;" xml:space="preserve">
<style type="text/css">
	.st0{fill:#AE924F;}
</style>
<path class="st0" d="M136.4,106.5L117.1,91l12.6-9.6l6.8,5.8l0,0l0,0l17.4-13.6l0,0l0,0L136.4,59l0,0l0,0l-6.8,5.8l-12.6-9.6
	l19.4-15.5L180,74.5L136.4,106.5 M90,143.2l43.6-34.9l-19.4-15.5l-12.6,9.6l6.8,5.8l0,0l0,0l-17.4,14.5l0,0l0,0l-17.4-14.5l0,0l0,0
	l6.8-5.8l-12.6-9.6l-19.4,15.5L90,143.2z M43.6,106.5L62.9,91l-12.6-9.6l-6.8,4.8l0,0l0,0L25.2,72.6l0,0l0,0L42.6,58l0,0l0,0
	l6.8,5.8L62,54.2L42.6,38.7L0,71.6L43.6,106.5z M113.2,50.3l19.4-15.5L90,0L46.4,34.9l19.4,15.5l12.6-9.6l-6.8-5.8l0,0l0,0
	l17.4-14.5l0,0l0,0l17.4,14.5l0,0l0,0l-6.8,5.8L113.2,50.3z M90,106.5l43.6-34.9L90,36.7L46.4,71.6L90,106.5z M90,57.1L90,57.1
	l17.4,14.5l0,0l0,0L90,86.1l0,0l0,0L71.6,72.6l0,0l0,0L90,57.1L90,57.1z"/>
</svg>
