<?xml version="1.0" encoding="utf-8"?>
<!-- Generator: Adobe Illustrator 22.1.0, SVG Export Plug-In . SVG Version: 6.00 Build 0)  -->
<svg version="1.1" id="レイヤー_1" xmlns="http://www.w3.org/2000/svg" xmlns:xlink="http://www.w3.org/1999/xlink" x="0px"
	 y="0px" viewBox="0 0 320 320" style="enable-background:new 0 0 320 320;" xml:space="preserve">
<style type="text/css">
	.st0{fill:#A4811B;}
	.st1{fill:#FFFFFF;}
</style>
<rect class="st0" width="320" height="320"/>
<path class="st1" d="M232.2,214.2l-30.1-24.1l19.6-15l10.5,9l0,0l0,0l27.1-21.1l0,0l0,0l-27.1-22.6l0,0l0,0l-10.5,9l-19.6-15
	l30.1-24.1l67.7,54.2L232.2,214.2 M160,271.3l67.7-54.2l-30.1-24.1l-19.6,15l10.5,9l0,0l0,0l-27.1,22.6l0,0l0,0l-27.1-22.6l0,0l0,0
	l10.5-9l-19.6-15l-30.1,24.1L160,271.3z M87.8,214.2l30.1-24.1l-19.6-15l-10.5,7.5l0,0l0,0l-28.6-21.1l0,0l0,0l27.1-22.6l0,0l0,0
	l10.5,9l19.6-15l-30.1-24.1L20.1,160L87.8,214.2z M196.1,126.9l30.1-24.1L160,48.7l-67.7,54.2l30.1,24.1l19.6-15l-10.5-9l0,0l0,0
	l27.1-22.6l0,0l0,0l27.1,22.6l0,0l0,0l-10.5,9L196.1,126.9z M160,214.2l67.7-54.2L160,105.8L92.3,160L160,214.2z M160,137.4
	L160,137.4l27.1,22.6l0,0l0,0L160,182.6l0,0l0,0l-28.6-21.1l0,0l0,0L160,137.4L160,137.4z"/>
</svg>
